<?xml version="1.0" encoding="UTF-8"?>
<svg width="250px" height="250px" viewBox="0 0 250 250" version="1.1" xmlns="http://www.w3.org/2000/svg" xmlns:xlink="http://www.w3.org/1999/xlink">
    <!-- Generator: sketchtool 52.5 (67469) - http://www.bohemiancoding.com/sketch -->
    <title>8F970259-A52C-4B20-A1BD-741321AD96AA</title>
    <desc>Created with sketchtool.</desc>
    <defs>
        <polygon id="path-1" points="0 0 249.999709 0 249.999709 250 0 250"></polygon>
    </defs>
    <g id="Основные-экраны" stroke="none" stroke-width="1" fill="none" fill-rule="evenodd">
        <g id="главная-диз-1.1" transform="translate(-292.000000, -2959.000000)">
            <g id="1" transform="translate(227.000000, 2909.000000)">
                <g id="Group-25" transform="translate(65.000000, 50.000000)">
                    <g id="1">
                        <g id="Group-3">
                            <mask id="mask-2" fill="white">
                                <use xlink:href="#path-1"></use>
                            </mask>
                            <g id="Clip-2"></g>
                            <path d="M249.999709,125 C249.999709,194.035465 194.035756,250 124.999709,250 C55.9642442,250 -0.000290697674,194.035465 -0.000290697674,125 C-0.000290697674,55.9645349 55.9642442,0 124.999709,0 C194.035756,0 249.999709,55.9645349 249.999709,125" id="Fill-1" fill="#E47F5E" mask="url(#mask-2)"></path>
                        </g>
                        <path d="M141.963488,187.764593 L112.893721,187.764593 C112.893721,200.619244 108.30593,211.020407 95.4518605,211.020407 L159.405349,211.020407 C146.550698,211.020407 141.963488,200.619244 141.963488,187.764593" id="Fill-4" fill="#66797A"></path>
                        <path d="M136.149535,179.043663 L118.707674,179.043663 C117.103023,179.043663 115.800698,177.741337 115.800698,176.136686 C115.800698,174.532035 117.103023,173.230291 118.707674,173.230291 L136.149535,173.230291 C137.754186,173.230291 139.056512,174.532035 139.056512,176.136686 C139.056512,177.741337 137.754186,179.043663 136.149535,179.043663" id="Fill-6" fill="#5B4678"></path>
                        <path d="M92.5448837,211.020407 C92.5448837,209.415756 93.8472093,208.114012 95.4518605,208.114012 C105.097209,208.114012 109.986744,201.268081 109.986744,187.765174 C109.986744,186.160523 111.28907,184.858198 112.893721,184.858198 L141.963488,184.858198 C143.56814,184.858198 144.870465,186.160523 144.870465,187.765174 C144.870465,201.268081 149.759419,208.114012 159.405349,208.114012 C161.01,208.114012 162.312326,209.415756 162.312326,211.020407 C162.312326,212.625058 92.5448837,211.020407 92.5448837,211.020407" id="Fill-8" fill="#E5E4E2"></path>
                        <path d="M95.053314,209.62314 C118.388779,210.138256 153.006802,210.607442 160.402151,209.964419 C160.142267,209.718488 159.791105,209.567326 159.40564,209.567326 C146.191105,209.567326 143.417267,197.711512 143.417267,187.765 C143.417267,186.963256 142.764942,186.311512 141.963779,186.311512 L112.894012,186.311512 C112.092267,186.311512 111.440523,186.963256 111.440523,187.765 C111.440523,197.711512 108.666105,209.567326 95.4521512,209.567326 C95.3137791,209.567326 95.1800581,209.587093 95.053314,209.62314 M144.580058,213.192326 C139.94343,213.192326 134.127733,213.154535 126.817267,213.068488 C109.764942,212.867907 92.6823837,212.477209 92.5114535,212.47314 L91.091686,212.441163 L91.091686,211.020233 C91.091686,208.616744 93.0475,206.660349 95.4521512,206.660349 C104.254477,206.660349 108.533547,200.479535 108.533547,187.765 C108.533547,185.36093 110.48936,183.404535 112.894012,183.404535 L141.963779,183.404535 C144.367849,183.404535 146.324244,185.36093 146.324244,187.765 C146.324244,200.479535 150.602733,206.660349 159.40564,206.660349 C161.809709,206.660349 163.766105,208.616744 163.766105,211.020233 C163.766105,211.432442 163.600988,211.820814 163.30157,212.113256 C162.756802,212.645814 162.194593,213.192326 144.580058,213.192326" id="Fill-10" fill="#3C4A53"></path>
                        <path d="M75.8826163,49.4975581 L32.1919186,89.7504651 C31.673314,90.2283721 31.2488953,90.0655814 31.2488953,89.3905814 L31.2488953,49.8574419 C31.2488953,49.1812791 31.8494767,48.6289535 32.5820349,48.6289535 L75.4919186,48.6289535 C76.2256395,48.6289535 76.4023837,49.0196512 75.8826163,49.4975581 M121.639593,30.2586047 L14.6337791,30.2597674 C12.8058721,30.2597674 11.3105233,31.6365116 11.3105233,33.320814 L11.3105233,131.905116 C11.3105233,133.589419 12.3669186,133.993488 13.6605233,132.802209 L122.612849,32.4237209 C123.905872,31.2330233 123.468663,30.2597674 121.639593,30.2586047" id="Fill-12" fill="#DEC056"></path>
                        <path d="M32.7026163,50.0823256 L32.7026163,87.3032558 L73.1014535,50.0834884 L32.7026163,50.0823256 Z M31.643314,91.4776744 C31.3985465,91.4776744 31.1572674,91.4282558 30.9281977,91.3282558 C30.2194767,91.0172093 29.7956395,90.2927907 29.7956395,89.3904651 L29.7956395,49.8573256 C29.7956395,48.3782558 31.0456395,47.1753488 32.5822674,47.1753488 L75.4921512,47.1753488 C76.8997093,47.1753488 77.3764535,48.0096512 77.5165698,48.3683721 C77.6247093,48.6445349 77.8956395,49.6195349 76.8677326,50.5666279 L33.1764535,90.8195349 C32.7072674,91.252093 32.1671512,91.4776744 31.643314,91.4776744 Z M121.239826,31.7119767 L14.6340116,31.7131395 C13.6200581,31.7131395 12.7636628,32.449186 12.7636628,33.3206977 L12.7636628,131.652093 L121.239826,31.7119767 Z M12.3177326,134.942791 C11.9264535,134.942791 11.6078488,134.848023 11.3811047,134.748605 C10.9229651,134.547442 9.85668605,133.867791 9.85668605,131.905 L9.85668605,33.3206977 C9.85668605,30.8317442 11.9997093,28.8061628 14.6340116,28.8061628 L121.640988,28.805 C123.731105,28.8061628 124.431686,29.8038372 124.664244,30.3980233 C124.889826,30.9788372 125.053198,32.152093 123.597384,33.4927907 L14.6450581,133.871279 C13.7398256,134.705 12.9380814,134.942791 12.3177326,134.942791 Z" id="Fill-14" fill="#3C4A53"></path>
                        <path d="M23.6217442,37.7095349 C22.8188372,37.7095349 22.1682558,37.0589535 22.1682558,36.2560465 L22.1682558,30.439186 C22.1682558,29.6362791 22.8188372,28.9856977 23.6217442,28.9856977 C24.4246512,28.9856977 25.0752326,29.6362791 25.0752326,30.439186 L25.0752326,36.2560465 C25.0752326,37.0589535 24.4246512,37.7095349 23.6217442,37.7095349" id="Fill-16" fill="#3C4A53"></path>
                        <path d="M38.1566279,37.7095349 C37.3537209,37.7095349 36.7031395,37.0589535 36.7031395,36.2560465 L36.7031395,30.439186 C36.7031395,29.6362791 37.3537209,28.9856977 38.1566279,28.9856977 C38.9595349,28.9856977 39.6101163,29.6362791 39.6101163,30.439186 L39.6101163,36.2560465 C39.6101163,37.0589535 38.9595349,37.7095349 38.1566279,37.7095349" id="Fill-18" fill="#3C4A53"></path>
                        <path d="M52.6915116,37.7095349 C51.8886047,37.7095349 51.2380233,37.0589535 51.2380233,36.2560465 L51.2380233,30.439186 C51.2380233,29.6362791 51.8886047,28.9856977 52.6915116,28.9856977 C53.4944186,28.9856977 54.145,29.6362791 54.145,30.439186 L54.145,36.2560465 C54.145,37.0589535 53.4944186,37.7095349 52.6915116,37.7095349" id="Fill-20" fill="#3C4A53"></path>
                        <path d="M67.2263953,37.7095349 C66.4234884,37.7095349 65.772907,37.0589535 65.772907,36.2560465 L65.772907,30.439186 C65.772907,29.6362791 66.4234884,28.9856977 67.2263953,28.9856977 C68.0293023,28.9856977 68.6798837,29.6362791 68.6798837,30.439186 L68.6798837,36.2560465 C68.6798837,37.0589535 68.0293023,37.7095349 67.2263953,37.7095349" id="Fill-22" fill="#3C4A53"></path>
                        <path d="M81.7612791,37.7095349 C80.9583721,37.7095349 80.3077907,37.0589535 80.3077907,36.2560465 L80.3077907,30.439186 C80.3077907,29.6362791 80.9583721,28.9856977 81.7612791,28.9856977 C82.564186,28.9856977 83.2147674,29.6362791 83.2147674,30.439186 L83.2147674,36.2560465 C83.2147674,37.0589535 82.564186,37.7095349 81.7612791,37.7095349" id="Fill-24" fill="#3C4A53"></path>
                        <path d="M96.2961628,37.7095349 C95.4932558,37.7095349 94.8426744,37.0589535 94.8426744,36.2560465 L94.8426744,30.439186 C94.8426744,29.6362791 95.4932558,28.9856977 96.2961628,28.9856977 C97.0990698,28.9856977 97.7496512,29.6362791 97.7496512,30.439186 L97.7496512,36.2560465 C97.7496512,37.0589535 97.0990698,37.7095349 96.2961628,37.7095349" id="Fill-26" fill="#3C4A53"></path>
                        <path d="M18.5589535,117.068837 L12.742093,117.068837 C11.939186,117.068837 11.2886047,116.418256 11.2886047,115.615349 C11.2886047,114.812442 11.939186,114.16186 12.742093,114.16186 L18.5589535,114.16186 C19.3618605,114.16186 20.0124419,114.812442 20.0124419,115.615349 C20.0124419,116.418256 19.3618605,117.068837 18.5589535,117.068837" id="Fill-28" fill="#3C4A53"></path>
                        <path d="M18.5589535,102.533953 L12.742093,102.533953 C11.939186,102.533953 11.2886047,101.883372 11.2886047,101.080465 C11.2886047,100.277558 11.939186,99.6269767 12.742093,99.6269767 L18.5589535,99.6269767 C19.3618605,99.6269767 20.0124419,100.277558 20.0124419,101.080465 C20.0124419,101.883372 19.3618605,102.533953 18.5589535,102.533953" id="Fill-30" fill="#3C4A53"></path>
                        <path d="M18.5589535,87.9990698 L12.742093,87.9990698 C11.939186,87.9990698 11.2886047,87.3484884 11.2886047,86.5455814 C11.2886047,85.7426744 11.939186,85.092093 12.742093,85.092093 L18.5589535,85.092093 C19.3618605,85.092093 20.0124419,85.7426744 20.0124419,86.5455814 C20.0124419,87.3484884 19.3618605,87.9990698 18.5589535,87.9990698" id="Fill-32" fill="#3C4A53"></path>
                        <path d="M18.5589535,73.464186 L12.742093,73.464186 C11.939186,73.464186 11.2886047,72.8136047 11.2886047,72.0106977 C11.2886047,71.2077907 11.939186,70.5572093 12.742093,70.5572093 L18.5589535,70.5572093 C19.3618605,70.5572093 20.0124419,71.2077907 20.0124419,72.0106977 C20.0124419,72.8136047 19.3618605,73.464186 18.5589535,73.464186" id="Fill-34" fill="#3C4A53"></path>
                        <path d="M18.5589535,58.9293023 L12.742093,58.9293023 C11.939186,58.9293023 11.2886047,58.2787209 11.2886047,57.475814 C11.2886047,56.672907 11.939186,56.0223256 12.742093,56.0223256 L18.5589535,56.0223256 C19.3618605,56.0223256 20.0124419,56.672907 20.0124419,57.475814 C20.0124419,58.2787209 19.3618605,58.9293023 18.5589535,58.9293023" id="Fill-36" fill="#3C4A53"></path>
                        <path d="M18.5589535,44.3944186 L12.742093,44.3944186 C11.939186,44.3944186 11.2886047,43.7438372 11.2886047,42.9409302 C11.2886047,42.1380233 11.939186,41.4874419 12.742093,41.4874419 L18.5589535,41.4874419 C19.3618605,41.4874419 20.0124419,42.1380233 20.0124419,42.9409302 C20.0124419,43.7438372 19.3618605,44.3944186 18.5589535,44.3944186" id="Fill-38" fill="#3C4A53"></path>
                        <path d="M214.637907,172.525698 L40.2193023,172.525698 L40.2193023,68.5815116 C40.2193023,62.1582558 45.4262791,56.9506977 51.8501163,56.9506977 L203.007093,56.9506977 C209.430349,56.9506977 214.637907,62.1582558 214.637907,68.5815116 L214.637907,172.525698 Z" id="Fill-40" fill="#E5E4E2"></path>
                        <path d="M41.6727907,171.072209 L213.184419,171.072209 L213.184419,68.5815116 C213.184419,62.9693023 208.618721,58.404186 203.007093,58.404186 L51.8501163,58.404186 C46.2384884,58.404186 41.6727907,62.9693023 41.6727907,68.5815116 L41.6727907,171.072209 Z M216.091395,173.979186 L38.765814,173.979186 L38.765814,68.5815116 C38.765814,61.3669767 44.6355814,55.4972093 51.8501163,55.4972093 L203.007093,55.4972093 C210.221628,55.4972093 216.091395,61.3669767 216.091395,68.5815116 L216.091395,173.979186 Z" id="Fill-42" fill="#3C4A53"></path>
                        <path d="M199.67157,167.415756 L54.3227326,167.415756 C52.7169186,167.415756 51.4157558,166.114593 51.4157558,164.508779 L51.4157558,71.4861047 C51.4157558,69.8802907 52.7169186,68.5791279 54.3227326,68.5791279 L199.67157,68.5791279 C201.277384,68.5791279 202.578547,69.8802907 202.578547,71.4861047 L202.578547,164.508779 C202.578547,166.114593 201.277384,167.415756 199.67157,167.415756" id="Fill-44" fill="#E47F5E"></path>
                        <path d="M54.3227326,70.0326163 C53.5209884,70.0326163 52.8692442,70.6843605 52.8692442,71.4861047 L52.8692442,164.508779 C52.8692442,165.310523 53.5209884,165.962267 54.3227326,165.962267 L199.67157,165.962267 C200.473314,165.962267 201.125058,165.310523 201.125058,164.508779 L201.125058,71.4861047 C201.125058,70.6843605 200.473314,70.0326163 199.67157,70.0326163 L54.3227326,70.0326163 Z M199.67157,168.869244 L54.3227326,168.869244 C51.9180814,168.869244 49.9622674,166.91343 49.9622674,164.508779 L49.9622674,71.4861047 C49.9622674,69.0814535 51.9180814,67.1256395 54.3227326,67.1256395 L199.67157,67.1256395 C202.076221,67.1256395 204.032035,69.0814535 204.032035,71.4861047 L204.032035,164.508779 C204.032035,166.91343 202.076221,168.869244 199.67157,168.869244 Z" id="Fill-46" fill="#3C4A53"></path>
                        <path d="M165.139826,219.741337 L86.809593,219.741337 C83.5549419,219.741337 80.9165698,217.102965 80.9165698,213.847733 C80.9165698,210.593081 83.5549419,207.954709 86.809593,207.954709 L165.139826,207.954709 C168.394477,207.954709 171.03343,210.593081 171.03343,213.847733 C171.03343,217.102965 168.394477,219.741337 165.139826,219.741337" id="Fill-48" fill="#E5E4E2"></path>
                        <path d="M86.8098837,209.407965 C84.3616279,209.407965 82.3697674,211.399826 82.3697674,213.848081 C82.3697674,216.296337 84.3616279,218.287616 86.8098837,218.287616 L165.140116,218.287616 C167.587791,218.287616 169.579651,216.296337 169.579651,213.848081 C169.579651,211.399826 167.587791,209.407965 165.140116,209.407965 L86.8098837,209.407965 Z M165.140116,221.194593 L86.8098837,221.194593 C82.7587209,221.194593 79.4627907,217.898663 79.4627907,213.848081 C79.4627907,209.796919 82.7587209,206.500988 86.8098837,206.500988 L165.140116,206.500988 C169.190698,206.500988 172.486628,209.796919 172.486628,213.848081 C172.486628,217.898663 169.190698,221.194593 165.140116,221.194593 Z" id="Fill-50" fill="#3C4A53"></path>
                        <path d="M238.689767,146.977791 L227.06186,146.977791 C226.258953,146.977791 225.608372,146.327209 225.608372,145.524302 C225.608372,144.721395 226.258953,144.070814 227.06186,144.070814 L238.689767,144.070814 C239.492674,144.070814 240.143256,144.721395 240.143256,145.524302 C240.143256,146.327209 239.492674,146.977791 238.689767,146.977791" id="Fill-52" fill="#FFAD92"></path>
                        <path d="M232.875814,152.791744 C232.072907,152.791744 231.422326,152.141163 231.422326,151.338256 L231.422326,139.710349 C231.422326,138.907442 232.072907,138.25686 232.875814,138.25686 C233.678721,138.25686 234.329302,138.907442 234.329302,139.710349 L234.329302,151.338256 C234.329302,152.141163 233.678721,152.791744 232.875814,152.791744" id="Fill-54" fill="#FFAD92"></path>
                        <path d="M23.7886628,176.02314 L12.1607558,176.02314 C11.3578488,176.02314 10.7072674,175.372558 10.7072674,174.569651 C10.7072674,173.766744 11.3578488,173.116163 12.1607558,173.116163 L23.7886628,173.116163 C24.5915698,173.116163 25.2421512,173.766744 25.2421512,174.569651 C25.2421512,175.372558 24.5915698,176.02314 23.7886628,176.02314" id="Fill-56" fill="#FFAD92"></path>
                        <path d="M17.9747093,181.837093 C17.1718023,181.837093 16.5212209,181.186512 16.5212209,180.383605 L16.5212209,168.755698 C16.5212209,167.952791 17.1718023,167.302209 17.9747093,167.302209 C18.7776163,167.302209 19.4281977,167.952791 19.4281977,168.755698 L19.4281977,180.383605 C19.4281977,181.186512 18.7776163,181.837093 17.9747093,181.837093" id="Fill-58" fill="#FFAD92"></path>
                        <path d="M231.128198,44.4489535 C228.895058,44.4489535 226.9875,46.1605814 226.7875,48.4262791 C226.576453,50.8210465 228.353198,52.9413953 230.748547,53.1530233 C231.90843,53.2536047 233.038663,52.9001163 233.931686,52.1518605 C234.824128,51.404186 235.372965,50.3530233 235.475291,49.1925581 C235.577035,48.0326744 235.221802,46.9024419 234.473547,46.0094186 C233.725872,45.1163953 232.674709,44.5681395 231.514826,44.465814 C231.385174,44.4547674 231.256105,44.4489535 231.128198,44.4489535 M231.145058,56.0774419 C230.928198,56.0774419 230.710756,56.0675581 230.492733,56.0483721 C228.559012,55.8780233 226.807267,54.9646512 225.560756,53.4768605 C224.313663,51.9890698 223.721221,50.1047674 223.892151,48.1704651 C224.0625,46.2367442 224.975872,44.485 226.464244,43.2384884 C227.951453,41.9925581 229.835174,41.3977907 231.770058,41.5704651 C233.70436,41.740814 235.454942,42.654186 236.702035,44.1425581 C237.948547,45.6303488 238.54157,47.5140698 238.37064,49.4483721 C238.200291,51.382093 237.286919,53.1338372 235.798547,54.3803488 C234.478779,55.4861628 232.846221,56.0774419 231.145058,56.0774419" id="Fill-60" fill="#FFAD92"></path>
                        <path d="M161.184186,141.402849 L112.626047,105.569709 C111.592907,104.806919 111.37314,103.351105 112.13593,102.317384 L156.276628,42.5022674 C157.039419,41.4679651 158.495233,41.2487791 159.528372,42.0115698 L208.086512,77.8447093 C209.119651,78.6069186 209.339419,80.063314 208.577209,81.0964535 L164.436512,140.912151 C163.673721,141.945872 162.217326,142.16564 161.184186,141.402849" id="Fill-62" fill="#9DD3DA"></path>
                        <path d="M162.047209,140.233256 C162.434419,140.518721 162.98093,140.436744 163.266977,140.049535 L207.407674,80.2338372 C207.69314,79.8466279 207.610581,79.2995349 207.223372,79.0140698 L158.665814,43.1809302 C158.279186,42.8960465 157.732093,42.9780233 157.446047,43.3652326 L113.305349,103.18093 C113.019884,103.567558 113.102442,104.114651 113.489651,104.400698 L162.047209,140.233256 Z M162.557093,143.311163 C161.755349,143.311163 160.978023,143.056512 160.321047,142.572209 L111.763488,106.739651 C110.086744,105.501279 109.729767,103.13093 110.966395,101.454767 L155.106512,41.6390698 C156.344302,39.962907 158.71407,39.604186 160.391395,40.8419767 L208.949535,76.6751163 C210.626279,77.9123256 210.983837,80.2832558 209.746628,81.96 L165.60593,141.775116 C165.006512,142.587326 164.12686,143.117558 163.128605,143.26814 C162.937326,143.297209 162.746628,143.311163 162.557093,143.311163 Z" id="Fill-64" fill="#3B4851"></path>
                        <path d="M187.704709,90.0714535 C187.404709,90.0714535 187.102384,89.9790116 186.843081,89.7877326 L154.381453,65.8325 C153.734942,65.3551744 153.598314,64.4458721 154.074477,63.7993605 C154.551221,63.1534302 155.461686,63.0173837 156.107035,63.4929651 L188.568663,87.4481977 C189.215174,87.9255233 189.351802,88.8348256 188.87564,89.4807558 C188.590174,89.8668023 188.15064,90.0714535 187.704709,90.0714535" id="Fill-66" fill="#3B4851"></path>
                        <path d="M176.586047,105.137733 C176.286047,105.137733 175.983721,105.045291 175.724419,104.854012 L143.262791,80.8993605 C142.616279,80.4220349 142.479651,79.5127326 142.955814,78.8662209 C143.432558,78.2202907 144.343023,78.0836628 144.988372,78.5598256 L177.45,102.514477 C178.096512,102.991802 178.23314,103.901105 177.756977,104.547035 C177.471512,104.933081 177.031977,105.137733 176.586047,105.137733" id="Fill-68" fill="#3B4851"></path>
                        <path d="M165.467442,120.204651 C165.167442,120.204651 164.865116,120.112209 164.605814,119.92093 L132.144186,95.9662791 C131.497674,95.4889535 131.361047,94.5796512 131.837209,93.9331395 C132.313953,93.2872093 133.224419,93.1505814 133.869767,93.6267442 L166.331395,117.581395 C166.977907,118.058721 167.114535,118.968023 166.638372,119.613953 C166.352907,120 165.913372,120.204651 165.467442,120.204651" id="Fill-70" fill="#3B4851"></path>
                        <path d="M137.135233,131.261395 L77.6265116,141.289884 C76.3596512,141.503256 75.1596512,140.649186 74.9462791,139.383488 L61.9986047,62.552093 C61.7852326,61.2863953 62.6387209,60.0863953 63.9055814,59.8730233 L123.413721,49.8439535 C124.680581,49.6305814 125.880581,50.4840698 126.093953,51.7509302 L139.041628,128.581744 C139.255,129.848023 138.401512,131.048023 137.135233,131.261395" id="Fill-72" fill="#9DD3DA"></path>
                        <path d="M123.802267,51.265 C123.75343,51.265 123.704593,51.2690698 123.655174,51.2772093 L64.1470349,61.3062791 C63.6726163,61.3859302 63.351686,61.837093 63.4319186,62.3109302 L76.379593,139.141744 C76.4592442,139.615581 76.9150581,139.93186 77.3848256,139.85686 L136.894128,129.828372 L136.893547,129.828372 C137.367384,129.74814 137.688314,129.297558 137.608663,128.822558 L124.660988,51.9923256 C124.621453,51.7626744 124.495872,51.562093 124.305756,51.4266279 C124.156337,51.3202326 123.981919,51.265 123.802267,51.265 M77.2377326,142.776047 C75.4272674,142.776047 73.8237791,141.467907 73.513314,139.624884 L60.5650581,62.7934884 C60.2197093,60.7388372 61.6092442,58.7859302 63.6638953,58.44 L123.172616,48.4109302 C124.168547,48.2440698 125.169128,48.4725581 125.991802,49.0580233 C126.813895,49.6434884 127.359244,50.5138372 127.526686,51.5097674 L140.474942,128.34 C140.820872,130.395233 139.431337,132.34814 137.377267,132.694651 L137.376686,132.694651 L77.8673837,142.72314 C77.6563372,142.758605 77.4458721,142.776047 77.2377326,142.776047" id="Fill-74" fill="#3B4851"></path>
                        <path d="M77.2185465,80.1451163 C76.5220349,80.1451163 75.9063372,79.6433721 75.7871512,78.932907 C75.6540116,78.1416279 76.1871512,77.3922093 76.9790116,77.2584884 L116.76157,70.5544186 C117.55343,70.4183721 118.302849,70.9544186 118.435988,71.7462791 C118.569128,72.5375581 118.035988,73.2869767 117.244128,73.4206977 L77.4615698,80.1247674 C77.379593,80.1387209 77.2987791,80.1451163 77.2185465,80.1451163" id="Fill-76" fill="#3B4851"></path>
                        <path d="M80.3299419,98.6101163 C79.6334302,98.6101163 79.0177326,98.1083721 78.8985465,97.397907 C78.765407,96.6066279 79.2985465,95.8572093 80.090407,95.7234884 L119.873547,89.0194186 C120.665988,88.8833721 121.414826,89.4194186 121.547965,90.2112791 C121.681105,91.0025581 121.147965,91.7519767 120.356105,91.8856977 L80.5729651,98.5897674 C80.4909884,98.6037209 80.4101744,98.6101163 80.3299419,98.6101163" id="Fill-78" fill="#3B4851"></path>
                        <path d="M83.4418605,117.075116 C82.7453488,117.075116 82.1296512,116.573372 82.0104651,115.862907 C81.8773256,115.071628 82.4104651,114.322209 83.2023256,114.188488 L122.985465,107.483837 C123.777907,107.347791 124.526744,107.883837 124.659884,108.675698 C124.793023,109.466977 124.259884,110.216395 123.468023,110.350116 L83.6848837,117.054767 C83.602907,117.068721 83.522093,117.075116 83.4418605,117.075116" id="Fill-80" fill="#3B4851"></path>
                        <path d="M158.030814,167.415756 L97.6825581,167.415756 C96.3982558,167.415756 95.3569767,166.375058 95.3569767,165.090174 L95.3569767,84.3558721 C95.3569767,83.0715698 96.3982558,82.0302907 97.6825581,82.0302907 L158.030814,82.0302907 C159.315116,82.0302907 160.356395,83.0715698 160.356395,84.3558721 L160.356395,165.090174 C160.356395,166.375058 159.315116,167.415756 158.030814,167.415756" id="Fill-82" fill="#9DD3DA"></path>
                        <path d="M97.6826744,83.4836047 C97.2018605,83.4836047 96.8105814,83.8748837 96.8105814,84.3556977 L96.8105814,165.09 C96.8105814,165.570814 97.2018605,165.962093 97.6826744,165.962093 L158.03093,165.962093 C158.511744,165.962093 158.903023,165.570814 158.903023,165.09 L158.903023,84.3556977 C158.903023,83.8748837 158.511744,83.4836047 158.03093,83.4836047 L97.6826744,83.4836047 Z M158.03093,168.86907 L97.6826744,168.86907 C95.5989535,168.86907 93.9036047,167.173721 93.9036047,165.09 L93.9036047,84.3556977 C93.9036047,82.2719767 95.5989535,80.5766279 97.6826744,80.5766279 L158.03093,80.5766279 C160.114651,80.5766279 161.81,82.2719767 161.81,84.3556977 L161.81,165.09 C161.81,167.173721 160.114651,168.86907 158.03093,168.86907 Z" id="Fill-84" fill="#3B4851"></path>
                        <path d="M148.029012,104.253721 L107.684826,104.253721 C106.8825,104.253721 106.231337,103.60314 106.231337,102.800233 C106.231337,101.997326 106.8825,101.346744 107.684826,101.346744 L148.029012,101.346744 C148.831919,101.346744 149.4825,101.997326 149.4825,102.800233 C149.4825,103.60314 148.831919,104.253721 148.029012,104.253721" id="Fill-86" fill="#3B4851"></path>
                        <path d="M148.029012,122.979302 L107.684826,122.979302 C106.8825,122.979302 106.231337,122.328721 106.231337,121.525814 C106.231337,120.722907 106.8825,120.072326 107.684826,120.072326 L148.029012,120.072326 C148.831919,120.072326 149.4825,120.722907 149.4825,121.525814 C149.4825,122.328721 148.831919,122.979302 148.029012,122.979302" id="Fill-88" fill="#3B4851"></path>
                        <path d="M148.029012,141.70436 L107.684826,141.70436 C106.8825,141.70436 106.231337,141.053779 106.231337,140.250872 C106.231337,139.447965 106.8825,138.797384 107.684826,138.797384 L148.029012,138.797384 C148.831919,138.797384 149.4825,139.447965 149.4825,140.250872 C149.4825,141.053779 148.831919,141.70436 148.029012,141.70436" id="Fill-90" fill="#3B4851"></path>
                        <path d="M203.007209,190.672151 L51.8502326,190.672151 C45.4269767,190.672151 40.2194186,185.464593 40.2194186,179.040756 L40.2194186,161.602384 L214.638023,161.602384 L214.638023,179.040756 C214.638023,185.453547 209.42,190.672151 203.007209,190.672151" id="Fill-92" fill="#E5E4E2"></path>
                        <path d="M41.6727907,163.055872 L41.6727907,179.040756 C41.6727907,184.652384 46.2384884,189.218663 51.8501163,189.218663 L203.007093,189.218663 C208.618721,189.218663 213.184419,184.652384 213.184419,179.040756 L213.184419,163.055872 L41.6727907,163.055872 Z M203.007093,192.12564 L51.8501163,192.12564 C44.6355814,192.12564 38.765814,186.255872 38.765814,179.040756 L38.765814,160.148895 L216.091395,160.148895 L216.091395,179.040756 C216.091395,186.255872 210.221628,192.12564 203.007093,192.12564 Z" id="Fill-94" fill="#3C4A53"></path>
                        <path d="M136.661686,177.590756 L118.957616,177.590756 C118.154709,177.590756 117.504128,176.940174 117.504128,176.137267 C117.504128,175.33436 118.154709,174.683779 118.957616,174.683779 L136.661686,174.683779 C137.464593,174.683779 138.115174,175.33436 138.115174,176.137267 C138.115174,176.940174 137.464593,177.590756 136.661686,177.590756" id="Fill-96" fill="#3C4A53"></path>
                        <path d="M197.845058,203.769419 C195.22064,206.393837 190.965988,206.393837 188.34157,203.769419 L172.522965,187.950814 L182.026453,178.447907 L197.845058,194.26593 C200.469477,196.890349 200.469477,201.145 197.845058,203.769419" id="Fill-98" fill="#9DD3DA"></path>
                        <path d="M174.57843,187.950814 L189.369128,202.741512 C191.422616,204.795 194.764477,204.795 196.817384,202.741512 C198.870291,200.688023 198.870291,197.347326 196.817384,195.293837 L182.026686,180.50314 L174.57843,187.950814 Z M193.093547,207.187442 C191.000523,207.187442 188.9075,206.39093 187.313895,204.797326 L170.467965,187.950814 L182.026686,176.392674 L198.872616,193.238605 C202.059826,196.425233 202.059826,201.610116 198.872616,204.797326 C197.279593,206.39093 195.185988,207.187442 193.093547,207.187442 Z" id="Fill-100" fill="#3C4A53"></path>
                        <path d="M174.579012,187.950814 L180.733663,194.105465 L188.181337,186.657791 L182.026686,180.50314 L174.579012,187.950814 Z M180.733663,198.21593 L170.467384,187.950814 L182.026686,176.392674 L192.291802,186.657791 L180.733663,198.21593 Z" id="Fill-102" fill="#3C4A53"></path>
                        <path d="M178.581744,137.628895 C191.510814,150.557965 191.510814,171.521337 178.581744,184.450407 C165.652093,197.380058 144.689302,197.380058 131.759651,184.450407 C118.830581,171.521337 118.830581,150.557965 131.759651,137.628895 C144.689302,124.699244 165.652093,124.699244 178.581744,137.628895" id="Fill-104" fill="#9DD3DA"></path>
                        <path d="M155.17093,129.384884 C146.715698,129.384884 138.766279,132.677907 132.787209,138.656395 C126.808721,144.634884 123.516279,152.584302 123.516279,161.039535 C123.516279,169.494767 126.808721,177.444186 132.787209,183.422674 C145.129651,195.765698 165.212209,195.764535 177.55407,183.422674 C183.532558,177.444186 186.825,169.494767 186.825,161.039535 C186.825,152.584302 183.532558,144.634884 177.55407,138.656395 C171.575,132.677907 163.625581,129.384884 155.17093,129.384884 M155.17093,195.601744 C145.938953,195.601744 137.259302,192.006395 130.731977,185.477907 C124.20407,178.950581 120.609302,170.271512 120.609302,161.039535 C120.609302,151.807558 124.20407,143.12907 130.731977,136.601163 C137.259302,130.073256 145.938953,126.477907 155.17093,126.477907 C164.402326,126.477907 173.081977,130.073256 179.609302,136.601163 C186.137209,143.12907 189.731977,151.807558 189.731977,161.039535 C189.731977,170.271512 186.137209,178.950581 179.609302,185.477907 C173.081977,192.006395 164.402326,195.601744 155.17093,195.601744" id="Fill-106" fill="#3C4A53"></path>
                        <path d="M172.726395,178.595116 C163.046163,188.275349 147.295581,188.274767 137.615349,178.595116 C127.935116,168.915465 127.935116,153.164302 137.615349,143.48407 C147.295581,133.804419 163.046163,133.804419 172.726395,143.48407 C182.406047,153.164302 182.406047,168.915465 172.726395,178.595116" id="Fill-108" fill="#E5E4E2"></path>
                        <path d="M155.17093,137.677151 C149.185465,137.677151 143.2,139.95564 138.643023,144.512035 C134.236047,148.919012 131.80814,154.788779 131.80814,161.039942 C131.80814,167.291105 134.236047,173.160291 138.643023,177.567267 C147.756977,186.680058 162.584884,186.680058 171.698837,177.567267 C180.812209,168.454477 180.812209,153.625407 171.698837,144.512035 C167.14186,139.95564 161.156395,137.677151 155.17093,137.677151 M155.17093,187.307965 C148.441279,187.307965 141.711628,184.746337 136.587791,179.6225 C131.631395,174.666686 128.901163,168.067267 128.901163,161.039942 C128.901163,154.012616 131.631395,147.412616 136.587791,142.456802 C146.83314,132.210291 163.506395,132.209128 173.75407,142.456802 C184.001163,152.703314 184.001163,169.375988 173.75407,179.6225 C168.630233,184.746337 161.900581,187.307965 155.17093,187.307965" id="Fill-110" fill="#3C4A53"></path>
                        <path d="M169.378256,153.6525 C168.792209,153.6525 168.240465,153.295523 168.019535,152.715291 C165.241047,145.411802 157.48814,145.317035 157.15907,145.316453 C156.357907,145.315291 155.706744,144.666453 155.705581,143.865291 C155.704419,143.064128 156.349186,142.412965 157.150349,142.409477 C157.570116,142.396686 167.231744,142.470523 170.736977,151.68157 C171.02186,152.43157 170.645698,153.271686 169.895116,153.557151 C169.725349,153.621686 169.550349,153.6525 169.378256,153.6525" id="Fill-112" fill="#3C4A53"></path>
                        <path d="M174.11686,159.458488 C173.738953,160.410233 172.661047,160.875349 171.709302,160.497442 C170.75814,160.119535 170.292442,159.041628 170.670349,158.089884 C171.048256,157.138721 172.125581,156.673605 173.077907,157.05093 C174.029651,157.428837 174.494186,158.506744 174.11686,159.458488" id="Fill-114" fill="#3C4A53"></path>
                    </g>
                </g>
            </g>
        </g>
    </g>
</svg>