<?xml version="1.0" encoding="UTF-8"?>
<svg width="60px" height="60px" viewBox="0 0 60 60" version="1.1" xmlns="http://www.w3.org/2000/svg" xmlns:xlink="http://www.w3.org/1999/xlink">
    <!-- Generator: sketchtool 52.5 (67469) - http://www.bohemiancoding.com/sketch -->
    <title>1D63CE10-8A5D-4271-AA0F-8CE9CE2C1F07</title>
    <desc>Created with sketchtool.</desc>
    <g id="Мои-экраны" stroke="none" stroke-width="1" fill="none" fill-rule="evenodd">
        <g id="0_UI-kit" transform="translate(-322.000000, -3682.000000)">
            <g id="Group-30" transform="translate(322.000000, 3682.000000)">
                <g id="Group-26">
                    <circle id="Oval" fill="#FFFFFF" fill-rule="nonzero" cx="30" cy="30" r="30"></circle>
                    <g id="цветок">
                        <g id="знак" transform="translate(18.000000, 13.800000)">
                            <polygon id="Fill-1" fill="#76B82A" points="11.7337822 14.8438291 8.80064105 17.8134352 5.86694645 14.8438291 8.80064105 11.874223"></polygon>
                            <polygon id="Fill-2" fill="#76B82A" points="8.80075173 11.874335 5.86705714 14.8439411 2.93336254 11.874335 5.86705714 8.90472889"></polygon>
                            <polygon id="Fill-3" fill="#FFDA00" points="8.80075173 5.94464614 5.86705714 8.91425225 2.93336254 5.94464614 5.86705714 2.97504003"></polygon>
                            <polygon id="Fill-4" fill="#FFDA00" points="0 2.97520808 2.9336946 5.9448142 5.86738919 2.97520808 2.9336946 0.00560197342"></polygon>
                            <polygon id="Fill-5" fill="#EFB600" points="11.7337822 8.90209597 8.80064105 11.8711419 5.86694645 8.90209597 8.80064105 5.93248985"></polygon>
                            <polygon id="Fill-6" fill="#FFDA00" points="17.5949731 8.90209597 14.6612785 11.8711419 11.7275839 8.90209597 14.6612785 5.93248985"></polygon>
                            <polygon id="Fill-7" fill="#FFDA00" points="20.5252918 5.93590706 17.5915972 8.90495297 14.6579026 5.93590706 17.5915972 2.96630095"></polygon>
                            <polygon id="Fill-8" fill="#FFDA00" points="20.5219159 5.60197342e-05 17.5887747 2.96910193 20.5219159 5.93870804 23.4556105 2.96910193"></polygon>
                            <polygon id="Fill-9" fill="#FFDA00" points="5.86738919 2.97520808 8.80053036 5.9448142 11.7336715 2.97520808 8.80053036 0.00560197342"></polygon>
                            <polygon id="Fill-10" fill="#FFDA00" points="14.6646544 5.93590706 11.7309598 8.90495297 8.79726517 5.93590706 11.7309598 2.96630095"></polygon>
                            <polygon id="Fill-11" fill="#FFDA00" points="14.6614998 5.60197342e-05 11.7278053 2.96910193 14.6614998 5.93870804 17.5951944 2.96910193"></polygon>
                            <polygon id="Fill-12" fill="#76B82A" points="14.6673108 23.745701 11.7336162 26.7153071 8.80047502 23.745701 11.7336162 20.7760949"></polygon>
                            <polygon id="Fill-13" fill="#76B82A" points="17.5976848 20.7795121 14.6645437 23.7491182 11.7308491 20.7795121 14.6645437 17.8099059"></polygon>
                            <polygon id="Fill-14" fill="#76B82A" points="14.6646544 17.810018 11.7309598 20.7796241 8.79726517 17.810018 11.7309598 14.8404119"></polygon>
                            <polygon id="Fill-15" fill="#76B82A" points="8.80058571 29.681496 11.7331735 32.6505419 11.7342803 32.6505419 14.6674215 29.681496 11.7337269 26.7118899"></polygon>
                            <polygon id="Fill-16" fill="#6EA027" points="11.7337822 20.7762069 8.80064105 23.745813 5.86694645 20.7762069 8.80064105 17.8066008"></polygon>
                            <polygon id="Fill-17" fill="#6EA027" points="17.5976848 14.8405239 14.6645437 17.81013 11.7308491 14.8405239 14.6645437 11.8709178"></polygon>
                            <polygon id="Fill-18" fill="#6EA027" points="20.5312134 11.8710298 17.5975188 14.840636 14.6643776 11.8710298 17.5975188 8.90198393"></polygon>
                            <polygon id="Fill-19" fill="#EFB600" points="14.6646544 11.8710298 11.7309598 14.840636 8.79726517 11.8710298 11.7309598 8.90198393"></polygon>
                        </g>
                    </g>
                </g>
            </g>
        </g>
    </g>
</svg>