<?xml version="1.0" encoding="UTF-8"?>
<svg width="340px" height="140px" viewBox="0 0 340 140" version="1.1" xmlns="http://www.w3.org/2000/svg" xmlns:xlink="http://www.w3.org/1999/xlink">
    <!-- Generator: sketchtool 52.5 (67469) - http://www.bohemiancoding.com/sketch -->
    <title>4C6EF761-0F6A-4F4B-91CF-A5839748F108</title>
    <desc>Created with sketchtool.</desc>
    <defs>
        <rect id="path-1" x="0" y="0" width="340" height="140" rx="4"></rect>
        <polygon id="path-3" points="0 122.708333 95 122.708333 95 0 0 0"></polygon>
    </defs>
    <g id="Мои-экраны" stroke="none" stroke-width="1" fill="none" fill-rule="evenodd">
        <g id="0_UI-kit" transform="translate(-557.000000, -1302.000000)">
            <g id="Group-4" transform="translate(557.000000, 1302.000000)">
                <g id="баннер-copy-5">
                    <mask id="mask-2" fill="white">
                        <use xlink:href="#path-1"></use>
                    </mask>
                    <use id="Rectangle-17" fill="#36A9E1" xlink:href="#path-1"></use>
                    <g id="trophy-(1)" mask="url(#mask-2)" fill="#FFFFFF" fill-opacity="0.1">
                        <g transform="translate(25.376588, 29.974664) rotate(-330.000000) translate(-25.376588, -29.974664) translate(-43.123412, -38.525336)">
                            <path d="M136.181635,26.6575777 C136.046166,15.1136484 130.139208,8.75578712 119.548492,8.75578712 C115.449374,8.75578712 111.499537,9.7100109 108.917401,10.5061714 C109.174525,5.78765175 109.17851,2.87503775 109.17851,2.73025714 L109.178775,0.710235533 L27.1961507,0.710235533 L27.1961507,2.72999148 C27.1961507,2.79906113 27.2030569,5.75763302 27.4631033,10.5085623 C24.8812328,9.71187047 20.9276771,8.75578712 16.8245748,8.75578712 C6.23412425,8.75578712 0.326900041,15.1133827 0.191431524,26.6575777 C0.0580880034,38.0142221 2.6479273,48.1233623 7.8884339,56.704735 C13.0335813,65.129904 19.6099137,70.2067889 24.2208902,72.9815292 C31.6060493,77.4264269 38.9869585,78.3593984 43.8787001,78.3593984 C45.0846355,78.3593984 46.2464773,78.3025488 47.3331473,78.1904434 C47.4051315,78.1830052 47.4718033,78.1745043 47.5421938,78.1668004 C49.9073147,80.7141422 52.4570447,82.754619 55.1815556,84.2709635 C57.1899428,85.3885636 58.5868623,87.3376559 59.0655177,89.5779035 C56.3574755,90.4208189 54.3857445,92.9511589 54.3857445,95.9331082 C54.3857445,98.9820019 56.4477878,101.556972 59.2493299,102.340646 L59.2493299,110.817618 L48.3210049,110.817618 L48.3210049,119.664112 L37.5366485,119.664112 L37.5366485,136.710236 L98.8377461,136.710236 L98.8377461,119.664112 L88.0533897,119.664112 L88.0533897,110.817618 L77.1250647,110.817618 L77.1250647,102.340646 C79.9268724,101.556706 81.9889157,98.9820019 81.9889157,95.9331082 C81.9889157,92.9508933 80.0171848,90.4208189 77.3091425,89.5779035 C77.787798,87.3376559 79.1844518,85.3888292 81.1931046,84.2709635 C83.9109749,82.7586038 86.4782361,80.7069696 88.8375133,78.167863 C89.6734338,78.2605757 90.926916,78.3591328 92.4941008,78.3591328 C92.494632,78.3591328 92.4943664,78.3591328 92.4951633,78.3591328 C97.3863736,78.3591328 104.767017,77.4256299 112.151645,72.9812636 C116.762356,70.2062576 123.338954,65.1296383 128.484101,56.7044693 C133.725405,48.1233623 136.314978,38.0139564 136.181635,26.6575777 Z M105.283321,5.37787643 C105.265218,6.18248633 105.236466,7.19396284 105.192274,8.37787643 L31.3794263,8.37787643 C31.3336365,7.19425217 31.3030212,6.18132903 31.283321,5.37787643 L105.283321,5.37787643 Z M108.059131,23.7989754 C110.781675,22.8834768 114.310254,21.9602355 117.471228,21.9602355 C120.121626,21.9602355 122.029944,22.6143538 123.143328,23.9044352 C124.42294,25.3872813 124.835471,27.8782705 124.368764,31.3090541 C122.425562,45.599803 116.29204,56.755056 107.09744,62.7192797 C103.89471,64.796973 100.445414,65.6553363 97.554791,65.9602355 C103.669285,52.9763882 106.628619,36.6859063 108.059131,23.7989754 Z M30.5366206,37.6998081 C32.5134591,48.4101886 35.2428124,57.607526 38.64935,65.0360419 C38.7548131,65.2667229 38.8621264,65.4939331 38.9689111,65.7211432 C36.078852,65.4154374 32.6310808,64.5573254 29.4291259,62.4806623 C20.2332191,56.516063 14.0983855,45.360874 12.1548511,31.0698649 C11.6883289,27.6387519 12.1006658,25.1474504 13.3807606,23.6651113 C14.4943347,22.3750064 16.4032433,21.7211432 19.0538297,21.7211432 C22.2179871,21.7211432 25.7503402,22.6457362 28.4744073,23.5617854 C28.9610177,27.9570063 29.6263075,32.7679335 30.5366206,37.6998081 Z M43.6705616,75.4711432 C39.3077386,75.4711432 32.7283117,74.6318836 26.1631734,70.6347593 C19.4487975,66.5468825 3.86483,54.1590364 4.17441896,27.4882505 C4.28396583,18.0561507 8.38773951,13.4711432 16.7201809,13.4711432 C21.1764097,13.4711432 25.5776005,14.8302886 27.5893995,15.5472063 C27.6896852,16.9127767 27.8021427,18.2823627 27.9265075,19.6463268 C25.191805,18.8335701 21.9696983,18.1380689 18.94684,18.1380689 C15.0788302,18.1380689 12.1477901,19.2632389 10.234689,21.482525 C8.15515088,23.8953628 7.42139858,27.4799516 8.0538068,32.1367045 C9.13710356,40.114623 11.4010721,47.1660097 14.7830007,53.0946357 C18.0114579,58.7544845 22.1755618,63.2658728 27.1591502,66.5029786 C32.0268413,69.6653944 37.2917059,70.4628918 41.0472582,70.5391881 C41.0599592,70.5616754 41.0729249,70.5830919 41.085626,70.6053116 C41.2914895,70.9701954 41.4994697,71.328922 41.7095669,71.6830976 C41.7749245,71.7936603 41.8408114,71.9034199 41.9066983,72.0129118 C42.107005,72.3459386 42.3088993,72.6757529 42.5129105,72.9988745 C42.5896462,73.1204132 42.6674404,73.2390072 42.7447053,73.3594751 C42.8836235,73.5755141 43.0233354,73.7896792 43.1641058,74.001435 C43.3001132,74.2062304 43.4366499,74.4088842 43.5739804,74.6093963 C43.7086648,74.8056251 43.8436138,75.000783 43.9796213,75.1932639 C44.0433913,75.2837487 44.1061029,75.3777136 44.169873,75.4671276 C44.0079341,75.4698046 43.841497,75.4711432 43.6705616,75.4711432 Z M94.8887841,123.560544 L94.8887841,132.560544 L41.8887841,132.560544 L41.8887841,123.560544 L48.6055702,123.560544 L88.1717334,123.560544 L94.8887841,123.560544 Z M77.6878482,115.016315 L84.6519238,115.016315 L84.6519238,120.016315 L52.6519238,120.016315 L52.6519238,115.016315 L59.6162679,115.016315 L77.6878482,115.016315 Z M63.2320508,110.789074 L63.2320508,102.789074 L73.2320508,102.789074 L73.2320508,110.789074 L63.2320508,110.789074 Z M78.3121778,96.9278579 C78.3121778,98.3063887 77.1106433,99.4278579 75.6343012,99.4278579 L60.9900545,99.4278579 C59.5134403,99.4278579 58.3121778,98.3063887 58.3121778,96.9278579 C58.3121778,95.5493271 59.5134403,94.4278579 60.9900545,94.4278579 L75.6343012,94.4278579 C77.1109153,94.4278579 78.3121778,95.5493271 78.3121778,96.9278579 Z M88.708278,73.4765646 C88.6860368,73.5056194 88.6637957,73.5346743 88.6415545,73.5637291 C88.4435022,73.8217575 88.2438613,74.0733884 88.0431613,74.3215541 C87.993913,74.3820628 87.945459,74.4436378 87.895946,74.5038799 C87.6753878,74.7736369 87.4529761,75.0375295 87.2295054,75.2950247 C87.2186496,75.3072864 87.2085881,75.3200812 87.1977323,75.3323429 C84.9526987,77.9107606 82.5019343,79.9528631 79.9132217,81.4029398 C76.722409,83.1899461 74.5528365,86.3638549 73.9560319,89.9698545 L63.856955,89.9698545 C63.2598857,86.3635883 61.0903131,83.1899461 57.8995005,81.4029398 C55.4010765,80.0037757 53.1446575,78.1333367 51.1061489,75.898246 L50.613666,75.3326095 C48.6119613,73.0343445 46.7251692,70.2498773 45.0059803,67.0573095 L44.4793413,66.0787743 C35.8219684,49.2384256 33.2033361,24.8987279 32.4137748,11.9698545 L105.413775,11.9698545 C105.380148,12.5322923 105.343344,13.1131227 105.302569,13.7163439 C105.300716,13.7443326 105.298597,13.7731208 105.296744,13.8011095 C105.252262,14.4547102 105.204602,15.1101769 105.15403,15.7661767 C105.152706,15.7853688 105.151117,15.804561 105.149793,15.8240198 C104.98881,17.9031739 104.798171,19.9900582 104.58079,22.0521526 L104.449197,23.299112 C102.986311,36.5012075 99.8966424,53.3202316 93.3813053,65.9892107 L92.8059476,67.0570429 C91.5257568,69.433676 90.1526298,71.5837346 88.708278,73.4765646 Z M109.99457,70.7398353 C103.429071,74.7372618 96.8511361,75.5762609 92.4886899,75.5762609 C92.4884253,75.5762609 92.4878961,75.5762609 92.4876315,75.5762609 C92.3164358,75.5762609 92.1500029,75.5749224 91.9878037,75.5722453 C91.9904497,75.5684974 91.9930957,75.5644818 91.9957416,75.5607338 C92.256901,75.1961146 92.5140914,74.8261411 92.7673128,74.4510812 C92.7982709,74.405303 92.8286998,74.358454 92.8596579,74.3126758 C93.0737186,73.993567 93.2846041,73.6701749 93.4931082,73.3435702 C93.5468219,73.2597774 93.6005355,73.1757169 93.6537199,73.0913886 C93.8844504,72.7248954 94.1127995,72.3559928 94.3366503,71.9806652 C94.371842,71.922037 94.4059753,71.8618025 94.4409024,71.8026389 C94.6242696,71.4926322 94.80552,71.1796807 94.9843891,70.8637844 C95.0261957,70.7898968 95.0693254,70.7192217 95.1113967,70.6447987 C98.8668524,70.5685017 104.131582,69.7709974 108.999148,66.6085544 C113.982608,63.3708852 118.146605,58.8594579 121.374979,53.2000956 C124.756556,47.2714184 127.020467,40.2199709 128.104,32.2419834 C128.735863,27.5849226 128.002394,24.0003029 125.923174,21.587712 C124.010387,19.368139 121.079157,18.2429593 117.211247,18.2429593 C114.188731,18.2429593 110.966178,18.9379311 108.23181,19.7509625 C108.358553,18.3602157 108.467303,17.0262232 108.560442,15.7583547 C108.563088,15.7230171 108.565999,15.6874119 108.568645,15.652342 C110.580921,14.9351504 114.981735,13.5762609 119.437584,13.5762609 C127.769812,13.5762609 131.87348,18.1613081 131.983288,27.5929539 C132.291811,54.2639701 116.708773,66.6516555 109.99457,70.7398353 Z" id="Shape" fill-rule="nonzero" transform="translate(68.186533, 68.710236) rotate(-360.000000) translate(-68.186533, -68.710236) "></path>
                            <path d="M55.2514679,66.0300335 L52.2274898,68.2055193 C53.2599283,69.9171511 54.369514,71.4722581 55.5255308,72.8274191 L58.1752023,70.1321776 C57.1568122,68.9384815 56.1731859,67.5580997 55.2514679,66.0300335 Z" id="Path" fill-rule="evenodd"></path>
                            <path d="M46.9335693,44.5575427 L43.3475876,45.4216465 C45.111312,53.5887314 47.4659277,60.4448413 50.3456456,65.7993727 L53.543666,63.8800503 C50.8414815,58.855626 48.6174762,52.3546622 46.9335693,44.5575427 Z" id="Path" fill-rule="evenodd"></path>
                            <polygon id="Path" fill-rule="evenodd" points="118.390062 87.819756 118.387319 84.027925 115.18652 84.0299197 115.184276 80.8290428 111.392538 80.8315363 111.394782 84.0326626 108.193983 84.0349067 108.196477 87.8267378 111.397275 87.8244936 111.399519 91.0251212 115.191258 91.0226278 115.189014 87.8217508"></polygon>
                            <rect id="Rectangle" fill-rule="evenodd" x="100.911852" y="99.2900975" width="3.39869281" height="4.24836601"></rect>
                        </g>
                    </g>
                    <g id="trophy-(1)" mask="url(#mask-2)" fill="#FFFFFF" fill-opacity="0.1">
                        <g transform="translate(314.546461, -13.453539) rotate(-330.000000) translate(-314.546461, 13.453539) translate(257.046461, -70.953539)">
                            <path d="M114.771793,21.9017836 C114.657466,12.1604094 109.672339,6.79531189 100.734396,6.79531189 C97.2749805,6.79531189 93.9415497,7.60053606 91.7623782,8.27237817 C91.9793762,4.29064327 91.9827388,1.83282651 91.9827388,1.71065302 L91.982963,0.00605263158 L22.7944347,0.00605263158 L22.7944347,1.71042885 C22.7944347,1.76871345 22.8002632,4.26531189 23.0197271,8.27439571 C20.8407797,7.60210526 17.5042105,6.79531189 14.0414327,6.79531189 C5.10371345,6.79531189 0.118362573,12.1601852 0.00403508772,21.9017836 C-0.108499025,31.485117 2.07717349,40.0157407 6.4998538,47.257154 C10.8420565,54.3667544 16.3920955,58.6508967 20.2834893,60.9923684 C26.5161306,64.7432066 32.7451852,65.5304971 36.8735283,65.5304971 C37.8912671,65.5304971 38.8717934,65.4825244 39.7888791,65.387924 C39.8496296,65.3816472 39.9058967,65.3744737 39.9653021,65.3679727 C41.9613255,67.5175536 44.1131481,69.2394152 46.4124756,70.5189864 C48.1074366,71.462076 49.2863548,73.1068226 49.6903119,74.9972612 C47.404883,75.7085575 45.7408577,77.8437914 45.7408577,80.360117 C45.7408577,82.9329337 47.4811014,85.1058285 49.8454386,85.7671345 L49.8454386,92.9204483 L40.6225731,92.9204483 L40.6225731,100.385585 L31.5212086,100.385585 L31.5212086,114.77 L83.2557407,114.77 L83.2557407,100.385585 L74.1543762,100.385585 L74.1543762,92.9204483 L64.9315107,92.9204483 L64.9315107,85.7671345 C67.2960721,85.1056043 69.0363158,82.9329337 69.0363158,80.360117 C69.0363158,77.8435673 67.3722904,75.7085575 65.0868616,74.9972612 C65.4908187,73.1068226 66.6695127,71.4623002 68.3646979,70.5189864 C70.6584211,69.2427778 72.825039,67.511501 74.8161306,65.3688694 C75.5215984,65.4471053 76.5794639,65.5302729 77.902076,65.5302729 C77.9025244,65.5302729 77.9023002,65.5302729 77.9029727,65.5302729 C82.0308674,65.5302729 88.2596979,64.7425341 94.4918908,60.9921442 C98.3830604,58.6504483 103.933324,54.3665302 108.275526,47.2569298 C112.698879,40.0157407 114.884327,31.4848928 114.771793,21.9017836 Z M88.5459649,3.41480507 C88.5307212,4.03822612 88.5065107,4.82192982 88.4692982,5.73923977 L26.3148246,5.73923977 C26.2762671,4.822154 26.2504873,4.03732943 26.2338986,3.41480507 L88.5459649,3.41480507 Z M90.864347,19.0648928 C93.1737622,18.2962086 96.1669006,17.5210234 98.8482164,17.5210234 C101.096433,17.5210234 102.715175,18.0702437 103.65961,19.1534405 C104.745049,20.3984893 105.094981,22.4900097 104.699094,25.370614 C103.05076,37.3696199 97.847963,46.7359552 90.0485867,51.7437232 C87.3318519,53.4882261 84.4059649,54.2089376 81.9539766,54.4649415 C87.1406335,43.5632554 89.6509064,29.8852047 90.864347,19.0648928 Z M25.6665205,30.9376901 C27.3430994,39.9303314 29.6578947,47.6525926 32.5470175,53.8897173 C32.636462,54.0834016 32.7274756,54.2741715 32.8180409,54.4649415 C30.3669493,54.2082651 27.4428558,53.4877778 24.7272417,51.7441715 C16.9280897,46.7361793 11.7250682,37.3700682 10.0767349,25.3710624 C9.68107212,22.4902339 10.0307797,20.3984893 11.1164425,19.1538889 C12.0608772,18.070692 13.6798441,17.5216959 15.9278363,17.5216959 C18.6113938,17.5216959 21.6072222,18.2980019 23.9175341,19.0671345 C24.3302339,22.7574464 24.8944737,26.7967934 25.6665205,30.9376901 Z M36.8735283,62.1217446 C33.1773879,62.1217446 27.6033626,61.4189669 22.0414425,58.0718616 C16.3530897,54.6487622 3.15050682,44.2754483 3.41278752,21.9419103 C3.50559454,14.0436745 6.98227096,10.2042885 14.0414327,10.2042885 C17.8167057,10.2042885 21.5453509,11.3424074 23.2497271,11.9427388 C23.3346881,13.0862378 23.429961,14.2330994 23.5353216,15.3752534 C21.2185088,14.6946686 18.4887719,14.112271 15.9278363,14.112271 C12.6508967,14.112271 10.1677485,15.0544639 8.5469883,16.912846 C6.78522417,18.9333041 6.16359649,21.934961 6.69936647,25.834425 C7.61712476,32.514961 9.53513645,38.4196394 12.4002729,43.3841423 C15.1353899,48.123577 18.6631774,51.9013158 22.8852242,54.6119981 C27.0090838,57.2601365 31.469425,57.9279435 34.6510916,57.9918324 C34.6618519,58.0106628 34.6728363,58.0285965 34.6835965,58.0472027 C34.8580019,58.3527485 35.0342008,58.6531384 35.212193,58.9497173 C35.2675634,59.0423002 35.3233821,59.1342105 35.3792008,59.2258967 C35.5488986,59.5047661 35.7199415,59.7809454 35.8927778,60.0515205 C35.9577875,60.1532943 36.023694,60.2526023 36.089152,60.3534795 C36.2068421,60.534386 36.3252047,60.7137232 36.4444639,60.8910429 C36.5596881,61.0625341 36.6753606,61.232232 36.7917057,61.4001365 C36.905809,61.5644542 37.0201365,61.7278752 37.1353606,61.8890546 C37.189386,61.9648246 37.2425146,62.0435088 37.29654,62.1183821 C37.159347,62.1206238 37.0183431,62.1217446 36.8735283,62.1217446 Z M79.8472125,103.794786 L79.8472125,111.361248 L34.9304094,111.361248 L34.9304094,103.794786 L40.6227973,103.794786 L74.1546004,103.794786 L79.8472125,103.794786 Z M64.9319591,96.3296491 L70.7456238,96.3296491 L70.7456238,100.385809 L44.0317739,100.385809 L44.0317739,96.3296491 L49.8456628,96.3296491 L64.9319591,96.3296491 Z M53.2544152,92.9206725 L53.2544152,85.9753899 L61.5229825,85.9753899 L61.5229825,92.9206725 L53.2544152,92.9206725 Z M65.6277875,80.360117 C65.6277875,81.5766959 64.637846,82.5664133 63.4214912,82.5664133 L51.3561306,82.5664133 C50.1395517,82.5664133 49.1498343,81.5766959 49.1498343,80.360117 C49.1498343,79.143538 50.1395517,78.1538207 51.3561306,78.1538207 L63.4214912,78.1538207 C64.6380702,78.1538207 65.6277875,79.143538 65.6277875,80.360117 Z M74.1539279,60.87423 C74.1350975,60.8986647 74.1162671,60.9230994 74.0974366,60.9475341 C73.9297563,61.1645322 73.760731,61.3761501 73.590809,61.5848538 C73.5491131,61.6357407 73.5080897,61.6875244 73.4661696,61.7381871 C73.2794347,61.9650487 73.0911306,62.1869786 72.9019298,62.4035283 C72.8927388,62.4138402 72.8842203,62.4246004 72.8750292,62.4349123 C70.9742788,64.6033236 68.899347,66.3207018 66.7076218,67.5401949 C64.0061306,69.0430409 62.169269,71.7122515 61.6639864,74.7448441 L53.1136355,74.7448441 C52.6081287,71.7120273 50.7712671,69.0430409 48.0697758,67.5401949 C45.9544932,66.3635185 44.0441033,64.7905068 42.3182066,62.9108285 L41.9012476,62.4351365 C40.2065107,60.5023294 38.6090643,58.1606335 37.1535185,55.475731 L36.7076413,54.6527973 C29.3779045,40.4903119 27.160848,20.0209844 26.4923684,9.1479922 L88.2975828,9.1479922 C88.2691131,9.62099415 88.2379532,10.1094639 88.2034308,10.6167641 C88.2018616,10.6403021 88.2000682,10.6645127 88.198499,10.6880507 C88.1608382,11.2377193 88.1204873,11.7889571 88.0776706,12.3406433 C88.0765497,12.3567836 88.0752047,12.372924 88.0740838,12.3892885 C87.9377875,14.1378265 87.776384,15.8928655 87.5923392,17.6270565 L87.4809259,18.675731 C86.2423782,29.778499 83.6265205,43.9230507 78.1103314,54.5774756 L77.6232066,55.4755068 C76.5393372,57.4742203 75.3767836,59.2823879 74.1539279,60.87423 Z M92.7346101,58.0718616 C87.1722417,61.419191 81.5993372,62.1217446 77.9034211,62.1217446 C77.9031969,62.1217446 77.9027485,62.1217446 77.9025244,62.1217446 C77.7574854,62.1217446 77.6164815,62.1206238 77.4790643,62.1183821 C77.481306,62.1152437 77.4835478,62.1118811 77.4857895,62.1087427 C77.7070468,61.8034211 77.9249415,61.493616 78.1394737,61.1795517 C78.1657018,61.1412183 78.1914815,61.1019883 78.2177096,61.063655 C78.3990643,60.7964425 78.577729,60.5256433 78.7543762,60.252154 C78.799883,60.1819883 78.8453899,60.1115984 78.8904483,60.0409844 C79.0859259,59.7340936 79.279386,59.4251852 79.4690351,59.1108967 C79.4988499,59.0618031 79.527768,59.0113645 79.5573587,58.9618226 C79.7127096,58.702232 79.8662671,58.4401754 80.017807,58.175653 C80.0532261,58.1137817 80.0897661,58.0546004 80.1254094,57.9922807 C83.307076,57.9283918 87.7674172,57.2605848 91.8912768,54.6124464 C96.1133236,51.9013158 99.6411111,48.123577 102.376228,43.3845906 C105.24114,38.4200877 107.159152,32.5154094 108.077135,25.8348733 C108.612456,21.9351852 107.991053,18.9335283 106.229513,16.9132943 C104.608977,15.0546881 102.125604,14.1124951 98.8486647,14.1124951 C96.2879532,14.1124951 93.557768,14.6944444 91.2411793,15.3752534 C91.3485575,14.2106823 91.440692,13.0936355 91.5196004,12.0319591 C91.5218421,12.0023684 91.524308,11.9725536 91.5265497,11.9431871 C93.2313743,11.3426316 96.9597953,10.2047368 100.734844,10.2047368 C107.794006,10.2047368 111.270682,14.0441228 111.363713,21.9419103 C111.625097,44.2754483 98.422963,54.648538 92.7346101,58.0718616 Z" id="Shape" fill-rule="nonzero"></path>
                            <polygon id="Path" fill-rule="evenodd" points="99.4572904 74.7632261 99.4548246 71.3542495 96.5771345 71.3560429 96.575117 68.4783528 93.1661404 68.4805945 93.1681579 71.3585088 90.2904678 71.3605263 90.2927096 74.7695029 93.1703996 74.7674854 93.1724172 77.6449513 96.5813938 77.6427096 96.5793762 74.7650195"></polygon>
                            <polygon id="Path" fill-rule="evenodd" points="25.2831871 92.4651559 25.2796004 89.0561793 22.8648246 89.0586452 22.8623587 86.6436452 19.4533821 86.647232 19.455848 89.0620078 17.0406238 89.0644737 17.0444347 92.4734503 19.4592105 92.4709844 19.4616764 94.8862086 22.870653 94.8826218 22.8681871 92.4676218"></polygon>
                            <rect id="Rectangle" fill-rule="evenodd" x="83.4487524" y="84.9397173" width="3.21574074" height="3.40897661"></rect>
                        </g>
                    </g>
                    <path d="M166.744309,31.0378131 L176.136055,31.0378131 L176.136055,-36.6468865 L166.744309,-36.6468865 L166.744309,31.0378131 Z M171.440182,42.763956 L167.729088,34.6006907 L175.14985,34.6006907 L171.440182,42.763956 Z M171.440182,-44.3669298 C173.844412,-44.3669298 175.81112,-42.5427365 176.081899,-40.2097642 L166.798465,-40.2097642 C167.069244,-42.5427365 169.034527,-44.3669298 171.440182,-44.3669298 Z M185.584806,-40.2097642 L179.671854,-40.2097642 C179.392525,-44.5122952 175.812545,-47.9298075 171.440182,-47.9298075 C166.886824,-47.9298075 163.181431,-44.2258399 163.181431,-39.6710571 L163.181431,32.8192519 C163.181431,32.8463298 163.195683,32.867707 163.195683,32.8933598 C163.204234,33.08433 163.239863,33.2753002 163.309695,33.4577196 C163.319671,33.4819471 163.322521,33.5061747 163.332497,33.5289771 C163.335348,33.537528 163.336773,33.5475041 163.341048,33.556055 L169.111485,46.2513007 C169.524779,47.1633974 170.439726,47.7519848 171.440182,47.7519848 C172.442063,47.7519848 173.355585,47.1619722 173.768879,46.2513007 L179.539315,33.556055 C179.543591,33.5475041 179.543591,33.537528 179.547866,33.5289771 C179.557842,33.5061747 179.560693,33.4819471 179.570669,33.4577196 C179.640501,33.2753002 179.67613,33.08433 179.684681,32.8933598 C179.684681,32.867707 179.698932,32.8463298 179.698932,32.8192519 L179.698932,-36.6468865 L184.618554,-36.6468865 L184.618554,-17.4030717 C184.618554,-16.4197174 185.415213,-15.6216328 186.399993,-15.6216328 C187.383347,-15.6216328 188.181431,-16.4197174 188.181431,-17.4030717 L188.181431,-37.6131389 C188.181431,-39.0439906 187.017083,-40.2097642 185.584806,-40.2097642 Z" id="pen" fill-opacity="0.1" fill="#FFFFFF" mask="url(#mask-2)" transform="translate(175.681431, -0.088911) rotate(-60.000000) translate(-175.681431, 0.088911) "></path>
                    <g id="loope" mask="url(#mask-2)" fill="#FFFFFF" fill-opacity="0.1">
                        <g transform="translate(147.061447, 110.365180) rotate(-60.000000) translate(-147.061447, -110.365180) translate(114.561447, 63.240180)">
                            <path d="M32.0581275,61.2044902 C16.1382255,61.2044902 3.18665686,48.2529216 3.18665686,32.3330196 C3.18665686,16.4118431 16.1382255,3.46027451 32.0581275,3.46027451 C47.9780294,3.46027451 60.9308725,16.4118431 60.9308725,32.3330196 C60.9308725,48.2529216 47.9780294,61.2044902 32.0581275,61.2044902 Z M27.4023431,68.7585098 L36.2461667,68.7585098 L36.2461667,64.3907647 L27.4023431,64.3907647 L27.4023431,68.7585098 Z M36.2461667,86.2409608 C36.2461667,88.679098 34.2617549,90.6622353 31.8236176,90.6622353 C29.3854804,90.6622353 27.4023431,88.679098 27.4023431,86.2409608 L27.4023431,71.9447843 L36.2461667,71.9447843 L36.2461667,86.2409608 Z M64.1171471,32.3330196 C64.1171471,14.6555686 49.7355784,0.274 32.0581275,0.274 C14.3806765,0.274 0.000382352941,14.6555686 0.000382352941,32.3330196 C0.000382352941,47.3046863 10.3175392,59.9083137 24.2160686,63.4170392 L24.2160686,71.9447843 L24.2160686,86.2409608 C24.2160686,90.4353725 27.6279314,93.8485098 31.8236176,93.8485098 C36.0180294,93.8485098 39.4324412,90.4353725 39.4324412,86.2409608 L39.4324412,71.9447843 L39.4324412,63.5253725 C53.5654804,60.1848824 64.1171471,47.4716471 64.1171471,32.3330196 Z" id="Fill-1"></path>
                            <path d="M32.0581275,53.8928824 C20.1695,53.8928824 10.4972451,44.2206275 10.4972451,32.332 C10.4972451,20.4446471 20.1695,10.7723922 32.0581275,10.7723922 C43.9467549,10.7723922 53.6190098,20.4446471 53.6190098,32.332 C53.6190098,44.2206275 43.9467549,53.8928824 32.0581275,53.8928824 M32.0581275,7.58611765 C18.4132255,7.58611765 7.31097059,18.687098 7.31097059,32.332 C7.31097059,45.9781765 18.4132255,57.0791569 32.0581275,57.0791569 C45.7043039,57.0791569 56.8052843,45.9781765 56.8052843,32.332 C56.8052843,18.687098 45.7043039,7.58611765 32.0581275,7.58611765" id="Fill-4"></path>
                        </g>
                    </g>
                    <g id="mouse-2" mask="url(#mask-2)" fill="#FFFFFF" fill-opacity="0.1">
                        <g transform="translate(314.993810, 122.680276) rotate(-330.000000) translate(-314.993810, -122.680276) translate(277.493810, 69.644562)">
                            <path d="M21.5558036,23.4388393 L33.8330357,23.4388393 L33.8330357,20.9263393 L21.5558036,20.9263393 L21.5558036,23.4388393 Z M41.3008929,26.7870536 L41.3008929,44.9732143 C41.3008929,48.0254464 38.8165179,50.5098214 35.7642857,50.5098214 L29.3691964,50.5098214 L29.3691964,47.2941964 C31.7651786,46.7129464 33.5571429,44.5633929 33.5571429,41.990625 L33.5571429,36.16875 C33.5571429,33.5959821 31.7651786,31.4464286 29.3691964,30.8651786 L29.3691964,26.7870536 L35.5071429,26.7870536 L41.3008929,26.7870536 Z M52.0419643,36.4647321 L52.0419643,78.3040179 C52.0419643,91.7290179 41.1200893,102.650893 27.6950893,102.650893 C14.2700893,102.650893 3.34821429,91.7290179 3.34821429,78.3040179 L3.34821429,36.4647321 C3.34821429,31.9138393 6.50758929,28.0982143 10.7450893,27.0696429 L10.7450893,44.9732143 C10.7450893,49.8723214 14.7321429,53.8580357 19.63125,53.8580357 L35.7642857,53.8580357 C40.6633929,53.8580357 44.6491071,49.8723214 44.6491071,44.9732143 L44.6491071,27.0696429 C48.8839286,28.1008929 52.0419643,31.9165179 52.0419643,36.4647321 Z M28.0834821,44.1147321 L27.7727679,44.1147321 C27.7446429,44.1133929 27.721875,44.1 27.6950893,44.1 C27.6669643,44.1 27.6455357,44.1133929 27.6174107,44.1147321 C26.446875,44.1133929 25.4946429,43.1625 25.4946429,41.990625 L25.4946429,36.16875 C25.4946429,34.996875 26.4482143,34.0446429 27.6200893,34.0446429 L27.6495536,34.0446429 C27.665625,34.0446429 27.6790179,34.0540179 27.6950893,34.0540179 C27.7111607,34.0540179 27.7245536,34.0446429 27.7392857,34.0446429 L28.0834821,34.0446429 C29.2553571,34.0446429 30.2089286,34.996875 30.2089286,36.16875 L30.2089286,41.990625 C30.2089286,43.1625 29.2553571,44.1147321 28.0834821,44.1147321 Z M19.8830357,26.7870536 L26.0209821,26.7870536 L26.0209821,30.9629464 C23.7857143,31.6513393 22.1464286,33.7111607 22.1464286,36.16875 L22.1464286,41.990625 C22.1464286,44.4482143 23.7857143,46.509375 26.0209821,47.1977679 L26.0209821,50.5098214 L19.63125,50.5098214 C16.5776786,50.5098214 14.0933036,48.0254464 14.0933036,44.9732143 L14.0933036,26.7870536 L19.8830357,26.7870536 Z M72.5571429,20.6183036 C71.6330357,20.6183036 70.8830357,21.3669643 70.8830357,22.2924107 L70.8830357,29.0571429 C70.8830357,31.0098214 69.2946429,32.5982143 67.3419643,32.5982143 C65.3892857,32.5982143 63.7995536,31.0098214 63.7995536,29.0571429 L63.7995536,18.8892857 C63.7995536,8.47366071 55.3272321,0 44.9116071,0 C34.9392857,0 26.7669643,7.77455357 26.0892857,17.578125 L19.8830357,17.578125 C18.9575893,17.578125 18.2089286,18.3267857 18.2089286,19.2522321 L18.2089286,23.4388393 L13.0245536,23.4388393 L12.4191964,23.4388393 C12.3482143,23.4388393 12.2866071,23.4709821 12.2169643,23.4803571 C5.41205357,23.8995536 0,29.5540179 0,36.4647321 L0,78.3040179 C0,93.5758929 12.4245536,105.999107 27.6950893,105.999107 C42.9669643,105.999107 55.3901786,93.5758929 55.3901786,78.3040179 L55.3901786,36.4647321 C55.3901786,29.5566964 49.9808036,23.9035714 43.1785714,23.4803571 C43.1089286,23.4709821 43.0473214,23.4388393 42.975,23.4388393 L42.365625,23.4388393 L37.18125,23.4388393 L37.18125,19.2522321 C37.18125,18.3267857 36.4325893,17.578125 35.5071429,17.578125 L29.4375,17.578125 C30.1071429,9.62142857 36.7848214,3.34821429 44.9116071,3.34821429 C53.4803571,3.34821429 60.4513393,10.3191964 60.4513393,18.8892857 L60.4513393,29.0571429 C60.4513393,32.8566964 63.5424107,35.9464286 67.3419643,35.9464286 C71.1415179,35.9464286 74.23125,32.8566964 74.23125,29.0571429 L74.23125,22.2924107 C74.23125,21.3683036 73.4825893,20.6183036 72.5571429,20.6183036 Z" id="Fill-1"></path>
                            <path d="M12.5054464,83.6039732 C12.1719643,82.7254018 11.9161607,81.8120089 11.7407143,80.8919196 C11.5692857,79.9825446 10.6933929,79.3865625 9.78535714,79.5579911 C8.87732143,79.7294196 8.28,80.6053125 8.45142857,81.5133482 C8.66169643,82.6262946 8.97241071,83.7285268 9.37419643,84.7892411 C9.62866071,85.4588839 10.2648214,85.8700446 10.9398214,85.8700446 C11.1380357,85.8700446 11.3375893,85.8365625 11.533125,85.7615625 C12.3969643,85.4347768 12.8335714,84.4691518 12.5054464,83.6039732" id="Fill-3"></path>
                            <path d="M23.9554018,93.6526339 C20.3232589,92.7968304 17.0714732,90.6901339 14.7987054,87.7182589 C14.2375446,86.9843304 13.1875446,86.8450446 12.4522768,87.4048661 C11.7170089,87.9673661 11.5777232,89.0173661 12.1388839,89.7512946 C14.8804018,93.3379018 18.8045089,95.8798661 23.1879911,96.9124554 C23.3165625,96.9419196 23.4464732,96.9566518 23.5723661,96.9566518 C24.3317411,96.9566518 25.0187946,96.4370089 25.2009375,95.6655804 C25.4125446,94.7655804 24.8554018,93.8642411 23.9554018,93.6526339" id="Fill-4"></path>
                        </g>
                    </g>
                    <g id="booke" mask="url(#mask-2)">
                        <g transform="translate(46.871501, 206.985091) rotate(-330.000000) translate(-46.871501, -206.985091) translate(-0.628499, 145.514503)">
                            <path d="M21.73125,118.75 L21.73125,3.95833333 L91.0416667,3.95833333 L91.0436458,118.75 L21.73125,118.75 Z M3.95833333,118.75 L3.95833333,3.95833333 L17.7729167,3.95833333 L17.7748958,118.75 L3.95833333,118.75 Z M91.0416667,0 L17.7729167,0 L3.95833333,0 C1.7753125,0 0,1.7753125 0,3.95833333 L0,118.75 C0,120.933021 1.7753125,122.708333 3.95833333,122.708333 L17.7729167,122.708333 L91.0416667,122.708333 C93.2246875,122.708333 95,120.933021 95,118.75 L95,3.95833333 C95,1.7753125 93.2246875,0 91.0416667,0 Z" id="Fill-1" stroke="none" fill-opacity="0.1" fill="#FFFFFF" fill-rule="evenodd"></path>
                            <mask id="mask-4" fill="white">
                                <use xlink:href="#path-3"></use>
                            </mask>
                            <g id="Clip-6" stroke="none" fill="none"></g>
                        </g>
                    </g>
                    <rect id="Rectangle" fill-opacity="0.1" fill="#FFF6F6" fill-rule="nonzero" mask="url(#mask-2)" transform="translate(127.656854, 46.656854) rotate(-315.000000) translate(-127.656854, -46.656854) " x="123.656854" y="42.6568542" width="8" height="8"></rect>
                    <rect id="Rectangle-Copy-3" fill-opacity="0.1" fill="#FFF6F6" fill-rule="nonzero" mask="url(#mask-2)" transform="translate(66.656854, 112.656854) rotate(-315.000000) translate(-66.656854, -112.656854) " x="62.6568542" y="108.656854" width="8" height="8"></rect>
                    <rect id="Rectangle-Copy" fill-opacity="0.1" fill="#FFF6F6" fill-rule="nonzero" mask="url(#mask-2)" transform="translate(134.828427, 31.828427) rotate(-315.000000) translate(-134.828427, -31.828427) " x="132.828427" y="29.8284271" width="4" height="4"></rect>
                </g>
            </g>
        </g>
    </g>
</svg>