<?xml version="1.0" encoding="UTF-8"?>
<svg width="73px" height="73px" viewBox="0 0 73 73" version="1.1" xmlns="http://www.w3.org/2000/svg" xmlns:xlink="http://www.w3.org/1999/xlink">
    <!-- Generator: sketchtool 52.5 (67469) - http://www.bohemiancoding.com/sketch -->
    <title>C38C4577-BEB0-41E5-92F1-66DCD267D5FA</title>
    <desc>Created with sketchtool.</desc>
    <defs>
        <rect id="path-1" x="0" y="0" width="65" height="65" rx="32.5"></rect>
        <filter x="-9.2%" y="-9.2%" width="118.5%" height="118.5%" filterUnits="objectBoundingBox" id="filter-2">
            <feOffset dx="0" dy="0" in="SourceAlpha" result="shadowOffsetOuter1"></feOffset>
            <feGaussianBlur stdDeviation="2" in="shadowOffsetOuter1" result="shadowBlurOuter1"></feGaussianBlur>
            <feColorMatrix values="0 0 0 0 0.565635629   0 0 0 0 0.565635629   0 0 0 0 0.565635629  0 0 0 0.652853261 0" type="matrix" in="shadowBlurOuter1"></feColorMatrix>
        </filter>
    </defs>
    <g id="Основные-экраны" stroke="none" stroke-width="1" fill="none" fill-rule="evenodd">
        <g id="главная-диз-1.1" transform="translate(-156.000000, -1335.000000)">
            <g id="для-педагогов" transform="translate(120.000000, 1042.000000)">
                <g id="Group-19" transform="translate(36.000000, 293.000000)">
                    <g id="Group-3" transform="translate(4.000000, 4.000000)">
                        <g id="Rectangle" fill-rule="nonzero">
                            <use fill="black" fill-opacity="1" filter="url(#filter-2)" xlink:href="#path-1"></use>
                            <use fill="#FFFFFF" xlink:href="#path-1"></use>
                        </g>
                        <g id="бутон" transform="translate(19.500000, 15.600000)">
                            <polygon id="Fill-1" fill="#76B82A" points="12.5894126 16.7386971 8.39273063 20.9236674 4.19604864 16.7386971 8.39273063 12.5537267"></polygon>
                            <polygon id="Fill-2" fill="#76B82A" points="0 12.5540425 4.19668199 16.7390128 8.39257229 12.5540425 4.19668199 8.36907221"></polygon>
                            <polygon id="Fill-3" fill="#76B82A" points="16.7859363 20.9235095 12.5892543 25.1084798 8.39257229 20.9235095 12.5892543 16.7385392"></polygon>
                            <polygon id="Fill-4" fill="#76B82A" points="8.39265146 29.2406347 12.5893334 33.425605 16.7860154 29.2406347 12.5893334 25.0556644"></polygon>
                            <polygon id="Fill-5" fill="#6EA027" points="20.9816682 16.7386971 16.7857779 20.9236674 12.5890959 16.7386971 16.7857779 12.5537267"></polygon>
                            <polygon id="Fill-6" fill="#6EA027" points="16.7860154 12.5540425 20.9819057 16.7390128 25.177796 12.5540425 20.9819057 8.36907221"></polygon>
                            <polygon id="Fill-7" fill="#EFB600" points="12.5894126 8.36907221 8.39273063 12.5540425 4.19604864 8.36907221 8.39273063 4.1841019"></polygon>
                            <polygon id="Fill-8" fill="#FFDA00" points="20.9816682 8.36907221 16.7857779 12.5540425 12.5890959 8.36907221 16.7857779 4.1841019"></polygon>
                            <polygon id="Fill-9" fill="#FFDA00" points="8.39265146 4.1841019 12.5893334 8.36907221 16.7860154 4.1841019 12.5893334 0.000710521276"></polygon>
                            <polygon id="Fill-10" fill="#EFB600" points="16.7859363 12.5538846 12.5892543 16.738855 8.39257229 12.5538846 12.5892543 8.36891432"></polygon>
                        </g>
                    </g>
                </g>
            </g>
        </g>
    </g>
</svg>