<?xml version="1.0" encoding="UTF-8"?>
<svg width="61px" height="47px" viewBox="0 0 61 47" version="1.1" xmlns="http://www.w3.org/2000/svg" xmlns:xlink="http://www.w3.org/1999/xlink">
    <!-- Generator: sketchtool 52.5 (67469) - http://www.bohemiancoding.com/sketch -->
    <title>8B63CAA3-C909-4F1C-924F-1D47965CEAB8</title>
    <desc>Created with sketchtool.</desc>
    <g id="Основные-экраны" stroke="none" stroke-width="1" fill="none" fill-rule="evenodd">
        <g id="главная-диз-1.1" transform="translate(-596.000000, -2437.000000)" fill="#333333" fill-rule="nonzero">
            <g id="2" transform="translate(561.000000, 2396.000000)">
                <g id="Group-22" transform="translate(35.000000, 41.000000)">
                    <g id="иконка-1">
                        <path d="M60.2739042,25.5008241 L50.9846296,5.13413662 C50.7733928,4.66446666 50.3046633,4.36158586 49.7871078,4.36158586 L35.8403468,4.36158586 C35.1804248,1.79477341 32.8573352,0 30.1960614,0 C27.5347875,0 25.2116979,1.79477341 24.5517759,4.36158586 L10.6050149,4.36158586 C10.0956828,4.3513534 9.62798105,4.63786226 9.40749315,5.09474168 L0.118218556,25.4486385 C0.0472923028,25.6328228 0.00771755291,25.8277511 8.17818316e-06,26.0247261 C-0.00718723209,31.8551815 4.73458814,36.5871824 10.5916521,36.5943452 C16.4487161,36.6015079 21.2023124,31.8812742 21.2095079,26.0508189 C21.2110498,25.8656113 21.1704471,25.6819386 21.0912975,25.5141263 L12.6443998,6.9810955 L24.4988383,6.9810955 C24.9608865,9.18670219 26.6728801,10.9221273 28.8803292,11.4209598 L28.8803292,38.5461868 L23.0119582,38.5461868 C20.7397503,38.5681866 18.9033789,40.3967272 18.8807647,42.6586123 L18.8807647,45.4090975 C18.8807647,46.1294626 19.5124189,46.6666667 20.2489207,46.6666667 L40.0116288,46.6666667 C40.7352815,46.6666667 41.3797848,46.1294626 41.3797848,45.4090975 L41.3797848,42.6586123 C41.3571706,40.3967272 39.5207991,38.5681866 37.2485913,38.5461868 L31.5117935,38.5461868 L31.5117935,11.4209598 C33.714617,10.9134298 35.422499,9.18209762 35.8932844,6.9810955 L47.7477229,6.9810955 L39.3008252,25.5141263 C39.2227036,25.6824503 39.1826148,25.8656113 39.1826148,26.0508189 C39.1826148,31.8812742 43.9305577,36.6076473 49.7871078,36.6076473 C55.6441716,36.6076473 60.3921145,31.8812742 60.3921145,26.0508189 C60.3936564,25.8610067 60.3530537,25.673241 60.2739042,25.5008241 Z M10.6050149,8.89303067 L17.8543909,24.7937611 L3.3551252,24.7937611 L10.6050149,8.89303067 Z M10.6050149,34.0403233 C6.65781845,34.0403233 3.36848804,31.0805843 2.73683384,27.4132708 L18.4598332,27.4132708 C17.8415418,31.0805843 14.5522114,34.0403233 10.6050149,34.0403233 Z M38.7483204,42.6586123 L38.7483204,44.047157 L21.5122291,44.047157 L21.5122291,42.6586123 C21.5302176,41.8415505 22.1916813,41.1836032 23.0119582,41.1656964 L37.2485913,41.1656964 C38.0693821,41.1836032 38.7303319,41.8415505 38.7483204,42.6586123 Z M30.1960614,8.95851841 C28.4378115,8.95851841 27.0120923,7.5397878 27.0120923,5.78901403 C27.0120923,4.03875185 28.4378115,2.61950965 30.1960614,2.61950965 C31.9548253,2.61950965 33.3800304,4.03875185 33.3800304,5.78901403 C33.3784885,7.53876461 31.9537973,8.95698351 30.1960614,8.95851841 Z M57.0369975,24.7937611 L42.5377318,24.7937611 L49.7871078,8.89303067 L57.0369975,24.7937611 Z M49.7871078,34.0403233 C45.8399113,34.0403233 42.5505809,31.0805843 41.9194405,27.4132708 L57.6424398,27.4132708 C57.0236347,31.0805843 53.7343043,34.0403233 49.7871078,34.0403233 Z" id="Shape"></path>
                    </g>
                </g>
            </g>
        </g>
    </g>
</svg>