<?xml version="1.0" encoding="UTF-8"?>
<svg width="20px" height="21px" viewBox="0 0 20 21" version="1.1" xmlns="http://www.w3.org/2000/svg" xmlns:xlink="http://www.w3.org/1999/xlink">
    <!-- Generator: sketchtool 52.5 (67469) - http://www.bohemiancoding.com/sketch -->
    <title>A5CCA0FD-E1ED-4DAB-BE5B-5DFC1F986A6C</title>
    <desc>Created with sketchtool.</desc>
    <g id="Мои-экраны" stroke="none" stroke-width="1" fill="none" fill-rule="evenodd">
        <g id="0_UI-kit" transform="translate(-220.000000, -4234.000000)" fill="#FFFFFF">
            <g id="Group-32" transform="translate(220.000000, 4234.000000)">
                <g id="zoom-in" transform="translate(1.000000, 1.000000)">
                    <path d="M9.6875,7.625 L7.8125,7.625 L7.8125,5.375 C7.8125,5.168 7.6725,5 7.5,5 C7.3275,5 7.1875,5.168 7.1875,5.375 L7.1875,7.625 L5.3125,7.625 C5.14,7.625 5,7.793 5,8 C5,8.207 5.14,8.375 5.3125,8.375 L7.1875,8.375 L7.1875,10.625 C7.1875,10.832 7.3275,11 7.5,11 C7.6725,11 7.8125,10.832 7.8125,10.625 L7.8125,8.375 L9.6875,8.375 C9.86,8.375 10,8.207 10,8 C10,7.793 9.86,7.625 9.6875,7.625 Z" id="Path" stroke="#FFFFFF" stroke-width="0.5"></path>
                    <path d="M17.9016374,18.3926859 L12.6572528,12.8493751 C13.994908,11.4858777 14.8236189,9.60618132 14.8236189,7.53313446 C14.8236189,3.37914889 11.4988929,0 7.41180943,0 C3.32472594,0 0,3.37914889 0,7.53313446 C0,11.68712 3.32472594,15.0662689 7.41180943,15.0662689 C9.20582025,15.0662689 10.8523008,14.4144734 12.1356026,13.3329306 L17.3926932,18.8898727 C17.4618701,18.9634105 17.5543412,19 17.6471653,19 C17.7354011,19 17.823284,18.966639 17.891755,18.8999169 C18.0322264,18.7625269 18.0364618,18.5354567 17.9016374,18.3926859 Z M0.705886612,7.53313446 C0.705886612,3.77481781 3.71402241,0.717441377 7.41180943,0.717441377 C11.1095964,0.717441377 14.1177322,3.77481781 14.1177322,7.53313446 C14.1177322,11.2914511 11.1095964,14.3488275 7.41180943,14.3488275 C3.71402241,14.3488275 0.705886612,11.2914511 0.705886612,7.53313446 Z" id="Shape" stroke="#F8F9FA" fill-rule="nonzero"></path>
                </g>
            </g>
        </g>
    </g>
</svg>