<?xml version="1.0" encoding="UTF-8"?>
<svg width="70px" height="93px" viewBox="0 0 70 93" version="1.1" xmlns="http://www.w3.org/2000/svg" xmlns:xlink="http://www.w3.org/1999/xlink">
    <!-- Generator: sketchtool 52.5 (67469) - http://www.bohemiancoding.com/sketch -->
    <title>A0B37813-67C5-443E-AF43-105F2BE85620</title>
    <desc>Created with sketchtool.</desc>
    <g id="Мои-экраны" stroke="none" stroke-width="1" fill="none" fill-rule="evenodd">
        <g id="2_Польователь_18_Попап_2-уровень-(бутон)" transform="translate(-683.000000, -374.000000)">
            <g id="Group" transform="translate(683.000000, 374.000000)">
                <g id="бутон" transform="translate(0.000000, -0.000000)">
                    <polygon id="Fill-1" fill="#76B82A" points="34.763664 46.2212542 23.1751931 57.7773852 11.5867221 46.2212542 23.1751931 34.6651232"></polygon>
                    <polygon id="Fill-2" fill="#76B82A" points="0 34.6659951 11.588471 46.2221262 23.1747558 34.6659951 11.588471 23.1098641"></polygon>
                    <polygon id="Fill-3" fill="#76B82A" points="46.3516978 57.7769492 34.7632268 69.3330803 23.1747558 57.7769492 34.7632268 46.2208182"></polygon>
                    <polygon id="Fill-4" fill="#76B82A" points="23.1749744 80.74337 34.7634454 92.299501 46.3519164 80.74337 34.7634454 69.1872389"></polygon>
                    <polygon id="Fill-5" fill="#6EA027" points="57.9375454 46.2212542 46.3512606 57.7773852 34.7627896 46.2212542 46.3512606 34.6651232"></polygon>
                    <polygon id="Fill-6" fill="#6EA027" points="46.3519164 34.6659951 57.9382013 46.2221262 69.5244861 34.6659951 57.9382013 23.1098641"></polygon>
                    <polygon id="Fill-7" fill="#EFB600" points="34.763664 23.1098641 23.1751931 34.6659951 11.5867221 23.1098641 23.1751931 11.5537331"></polygon>
                    <polygon id="Fill-8" fill="#FFDA00" points="57.9375454 23.1098641 46.3512606 34.6659951 34.7627896 23.1098641 46.3512606 11.5537331"></polygon>
                    <polygon id="Fill-9" fill="#FFDA00" points="23.1749744 11.5537331 34.7634454 23.1098641 46.3519164 11.5537331 34.7634454 0.00196199169"></polygon>
                    <polygon id="Fill-10" fill="#EFB600" points="46.3516978 34.6655592 34.7632268 46.2216902 23.1747558 34.6655592 34.7632268 23.1094281"></polygon>
                </g>
            </g>
        </g>
    </g>
</svg>