<?xml version="1.0" encoding="UTF-8"?>
<svg width="60px" height="84px" viewBox="0 0 60 84" version="1.1" xmlns="http://www.w3.org/2000/svg" xmlns:xlink="http://www.w3.org/1999/xlink">
    <!-- Generator: sketchtool 52.5 (67469) - http://www.bohemiancoding.com/sketch -->
    <title>CA3563F4-BC0C-45FF-9CDF-03CC9EDB20B9</title>
    <desc>Created with sketchtool.</desc>
    <g id="Мои-экраны" stroke="none" stroke-width="1" fill="none" fill-rule="evenodd">
        <g id="0_UI-kit" transform="translate(-1014.000000, -173.000000)">
            <g id="Group" transform="translate(1014.000000, 173.000000)">
                <g id="знак" transform="translate(0.000000, -0.000000)">
                    <polygon id="Fill-1" fill="#76B82A" points="30.0011477 37.9529721 22.501639 45.545715 15.0007154 37.9529721 22.501639 30.3602292"></polygon>
                    <polygon id="Fill-2" fill="#76B82A" points="22.501922 30.3605156 15.0009984 37.9532585 7.50007468 30.3605156 15.0009984 22.7677727"></polygon>
                    <polygon id="Fill-3" fill="#FFDA00" points="22.501922 15.1993793 15.0009984 22.7921222 7.50007468 15.1993793 15.0009984 7.60663643"></polygon>
                    <polygon id="Fill-4" fill="#FFDA00" points="0 7.60706613 7.50092368 15.199809 15.0018474 7.60706613 7.50092368 0.0143232275"></polygon>
                    <polygon id="Fill-5" fill="#EFB600" points="30.0011477 22.7610408 22.501639 30.3523514 15.0007154 22.7610408 22.501639 15.1682979"></polygon>
                    <polygon id="Fill-6" fill="#FFDA00" points="44.9871471 22.7610408 37.4862234 30.3523514 29.9852997 22.7610408 37.4862234 15.1682979"></polygon>
                    <polygon id="Fill-7" fill="#FFDA00" points="52.4794392 15.1770351 44.9785156 22.7683457 37.4775919 15.1770351 44.9785156 7.58429219"></polygon>
                    <polygon id="Fill-8" fill="#FFDA00" points="52.4708077 0.000143232275 44.9712991 7.59145381 52.4708077 15.1841967 59.9717314 7.59145381"></polygon>
                    <polygon id="Fill-9" fill="#FFDA00" points="15.0018474 7.60706613 22.501356 15.199809 30.0008647 7.60706613 22.501356 0.0143232275"></polygon>
                    <polygon id="Fill-10" fill="#FFDA00" points="37.4948549 15.1770351 29.9939312 22.7683457 22.4930075 15.1770351 29.9939312 7.58429219"></polygon>
                    <polygon id="Fill-11" fill="#FFDA00" points="37.4867894 0.000143232275 29.9858657 7.59145381 37.4867894 15.1841967 44.9877131 7.59145381"></polygon>
                    <polygon id="Fill-12" fill="#76B82A" points="37.5016469 60.71344 30.0007232 68.3061829 22.5012145 60.71344 30.0007232 53.1206971"></polygon>
                    <polygon id="Fill-13" fill="#76B82A" points="44.9940806 53.1294342 37.4945719 60.7221771 29.9936482 53.1294342 37.4945719 45.5366913"></polygon>
                    <polygon id="Fill-14" fill="#76B82A" points="37.4948549 45.5369778 29.9939312 53.1297207 22.4930075 45.5369778 29.9939312 37.9442349"></polygon>
                    <polygon id="Fill-15" fill="#76B82A" points="22.5014975 75.8901886 29.9995912 83.4814992 30.0024212 83.4814992 37.5019299 75.8901886 30.0010062 68.2974457"></polygon>
                    <polygon id="Fill-16" fill="#6EA027" points="30.0011477 53.1209835 22.501639 60.7137264 15.0007154 53.1209835 22.501639 45.5282406"></polygon>
                    <polygon id="Fill-17" fill="#6EA027" points="44.9940806 37.9445214 37.4945719 45.5372643 29.9936482 37.9445214 37.4945719 30.3517785"></polygon>
                    <polygon id="Fill-18" fill="#6EA027" points="52.4945798 30.3520649 44.9936561 37.9448078 37.4941474 30.3520649 44.9936561 22.7607544"></polygon>
                    <polygon id="Fill-19" fill="#EFB600" points="37.4948549 30.3520649 29.9939312 37.9448078 22.4930075 30.3520649 29.9939312 22.7607544"></polygon>
                </g>
            </g>
        </g>
    </g>
</svg>