<?xml version="1.0" encoding="UTF-8"?>
<svg width="100px" height="100px" viewBox="0 0 100 100" version="1.1" xmlns="http://www.w3.org/2000/svg" xmlns:xlink="http://www.w3.org/1999/xlink">
    <!-- Generator: sketchtool 52.5 (67469) - http://www.bohemiancoding.com/sketch -->
    <title>540FF55D-2568-4181-860B-45E951199410</title>
    <desc>Created with sketchtool.</desc>
    <g id="Мои-экраны" stroke="none" stroke-width="1" fill="none" fill-rule="evenodd">
        <g id="2_Польователь_7_НОКДО_1-уровень" transform="translate(-670.000000, -382.000000)">
            <g id="Group" transform="translate(670.000000, 382.000000)">
                <g id="бутон" transform="translate(1.000000, 0.000000)">
                    <g transform="translate(30.000000, 24.000000)">
                        <polygon id="Fill-1" fill="#76B82A" points="19.3683271 25.7518416 12.9118933 32.1902575 6.45545945 25.7518416 12.9118933 19.3134258"></polygon>
                        <polygon id="Fill-2" fill="#76B82A" points="0 19.3139116 6.45643382 25.7523275 12.9116497 19.3139116 6.45643382 12.8754957"></polygon>
                        <polygon id="Fill-3" fill="#76B82A" points="25.8245173 32.1900146 19.3680835 38.6284304 12.9116497 32.1900146 19.3680835 25.7515987"></polygon>
                        <polygon id="Fill-4" fill="#76B82A" points="12.9117715 44.9855918 19.3682053 51.4240077 25.8246391 44.9855918 19.3682053 38.547176"></polygon>
                        <polygon id="Fill-5" fill="#6EA027" points="32.2794896 25.7518416 25.8242737 32.1902575 19.3678399 25.7518416 25.8242737 19.3134258"></polygon>
                        <polygon id="Fill-6" fill="#6EA027" points="25.8246391 19.3139116 32.279855 25.7523275 38.7350708 19.3139116 32.279855 12.8754957"></polygon>
                        <polygon id="Fill-7" fill="#EFB600" points="19.3683271 12.8754957 12.9118933 19.3139116 6.45545945 12.8754957 12.9118933 6.43707985"></polygon>
                        <polygon id="Fill-8" fill="#FFDA00" points="32.2794896 12.8754957 25.8242737 19.3139116 19.3678399 12.8754957 25.8242737 6.43707985"></polygon>
                        <polygon id="Fill-9" fill="#FFDA00" points="12.9117715 6.43707985 19.3682053 12.8754957 25.8246391 6.43707985 19.3682053 0.00109310966"></polygon>
                        <polygon id="Fill-10" fill="#EFB600" points="25.8245173 19.3136687 19.3680835 25.7520845 12.9116497 19.3136687 19.3680835 12.8752528"></polygon>
                    </g>
                </g>
            </g>
        </g>
    </g>
</svg>