<?xml version="1.0" encoding="UTF-8"?>
<svg width="38px" height="40px" viewBox="0 0 38 40" version="1.1" xmlns="http://www.w3.org/2000/svg" xmlns:xlink="http://www.w3.org/1999/xlink">
    <!-- Generator: sketchtool 52.5 (67469) - http://www.bohemiancoding.com/sketch -->
    <title>CC73C86E-8F5C-4237-8A8D-D6AA7172645B</title>
    <desc>Created with sketchtool.</desc>
    <g id="Основные-экраны" stroke="none" stroke-width="1" fill="none" fill-rule="evenodd">
        <g id="главная-диз-1.1" transform="translate(-612.000000, -1072.000000)" fill="#FFFFFF" fill-rule="nonzero">
            <g id="для-педагогов" transform="translate(120.000000, 1042.000000)">
                <g id="Group-6" transform="translate(492.000000, 30.000000)">
                    <g id="иконка">
                        <path d="M36.3555743,4.17010135 C35.7588682,3.46841216 34.8886824,3.06613176 33.9681588,3.06613176 L30.9467905,3.06613176 L30.9467905,2.12103041 C30.9467905,0.95152027 29.9951858,0 28.8257601,0 L8.33657095,0 C7.16697635,0 6.215625,0.95152027 6.215625,2.12094595 L6.215625,3.0660473 L3.19391892,3.0660473 C2.27339527,3.0660473 1.403125,3.46841216 0.806503378,4.17001689 C0.215962838,4.86435811 -0.0392736486,5.77635135 0.106418919,6.67204392 C0.900337838,11.5538007 3.97255068,15.8665541 8.33277027,18.2321791 C8.73116554,19.1900338 9.18234797,20.0972973 9.6847973,20.9425676 C11.2896959,23.6431588 13.2848818,25.5095439 15.4809966,26.4121622 C15.7035473,28.6625 14.2061655,30.7943412 11.951098,31.3023649 C11.4980574,31.411402 11.1704392,31.8063345 11.1704392,32.2786318 L11.1704392,38.5322635 C11.1704392,38.8084059 11.3942968,39.0322635 11.6704392,39.0322635 L25.5872466,39.0322635 C25.863389,39.0322635 26.0872466,38.8084059 26.0872466,38.5322635 L26.0872466,32.2787162 C26.0872466,31.8054899 25.7584459,31.4099662 25.3171453,31.3057432 C23.0327703,30.7909628 21.5326014,28.6376689 21.7785473,26.3704392 C23.9363176,25.4532095 25.8965372,23.6034628 27.4777872,20.9427365 C27.9802365,20.0973818 28.4313345,19.1900338 28.8298142,18.2320101 C33.1897804,15.8663007 36.2618243,11.5536318 37.0557432,6.67204392 C37.2014358,5.77635135 36.9461993,4.86444257 36.3555743,4.17010135 Z M2.08209459,6.35067568 C2.03006757,6.0308277 2.11849662,5.71689189 2.33116554,5.46672297 C2.54695946,5.21300676 2.86131757,5.06756757 3.19383446,5.06756757 L6.21554054,5.06756757 L6.21554054,6.9089527 C6.21554054,9.79628378 6.58403716,12.5930743 7.28243243,15.1507601 C4.53783784,12.9819257 2.64814189,9.83133446 2.08209459,6.35067568 Z M24.0855574,33.2795608 L24.0855574,36.8701858 L13.1722973,36.8701858 L13.1722973,33.2795608 L24.0855574,33.2795608 Z M16.4728885,30.3945101 C17.1398649,29.3523649 17.4899493,28.1684122 17.5056588,26.9592061 C17.8611486,27.0076014 18.2199324,27.0335304 18.5817568,27.0335304 C18.9754223,27.0335304 19.3654561,27.0032939 19.7516892,26.9460304 C19.7744932,28.5709459 20.4069257,30.1090372 21.4703547,31.2778716 L15.7970439,31.2778716 C16.0444257,31.0056588 16.2706081,30.710473 16.4728885,30.3945101 Z M25.7569257,19.9199324 C23.7981419,23.2163851 21.2498311,25.0318412 18.5815878,25.0318412 C15.9129223,25.0318412 13.3644426,23.2164696 11.4054054,19.9201014 C9.34949324,16.4605574 8.21722973,11.8397804 8.21722973,6.90920608 L8.21722973,2.12094595 C8.21722973,2.05506757 8.27077703,2.00160473 8.33648649,2.00160473 L28.8255912,2.00160473 C28.8914696,2.00160473 28.9450169,2.05515203 28.9450169,2.12094595 L28.9450169,6.90903716 C28.9450169,11.8396959 27.8127534,16.460473 25.7569257,19.9199324 Z M35.0800676,6.35067568 C34.5140203,9.83108108 32.6244932,12.9815878 29.8799831,15.1505912 C30.5782939,12.5929054 30.9467905,9.79628378 30.9467905,6.90903716 L30.9467905,5.06765203 L33.9681588,5.06765203 C34.3007601,5.06765203 34.6151182,5.21317568 34.8308277,5.46680743 C35.0434966,5.71689189 35.1320101,6.0308277 35.0800676,6.35067568 Z" id="Shape"></path>
                        <path d="M24.6571791,10.2751689 C24.5393581,9.91300676 24.2261824,9.64898649 23.8492399,9.59408784 L20.8291385,9.15523649 L19.4785473,6.41858108 C19.3098818,6.07702703 18.9619932,5.86072635 18.5810811,5.86072635 C18.2000845,5.86072635 17.8521959,6.07702703 17.6836149,6.41858108 L16.3330236,9.15523649 L13.3129223,9.59408784 C12.9358953,9.64881757 12.6227196,9.9129223 12.5049831,10.2752534 C12.3873311,10.6376689 12.485473,11.0353041 12.758277,11.3012669 L14.9436655,13.4314189 L14.4277027,16.4392736 C14.3632601,16.8147804 14.5175676,17.1941723 14.8258446,17.4181588 C15.1339527,17.6420608 15.542652,17.6715372 15.8798142,17.4943412 L18.5810811,16.0743243 L21.2822635,17.4943412 C21.4287162,17.5712838 21.588598,17.6092061 21.7478041,17.6092061 C21.9552365,17.6092061 22.1618243,17.5447635 22.3361486,17.4180743 C22.6444257,17.1940878 22.7987331,16.8146959 22.7342905,16.4391892 L22.2183277,13.4313345 L24.4037162,11.3011824 C24.6766892,11.0353041 24.7748311,10.6375845 24.6571791,10.2751689 Z M20.4445946,12.3652872 C20.2086993,12.5951858 20.1010135,12.9264358 20.1567568,13.2511824 L20.41875,14.7790541 L19.0467061,14.0576858 C18.9010135,13.9809966 18.7409628,13.9428209 18.5809966,13.9428209 C18.4210304,13.9428209 18.2610642,13.9811655 18.1152872,14.0576858 L16.7432432,14.7790541 L17.0052365,13.2511824 C17.0609797,12.9265203 16.9532939,12.5952703 16.7173986,12.3652872 L15.6075169,11.2833615 L17.1414696,11.0603885 C17.4673986,11.0130912 17.7492399,10.808277 17.8950169,10.5129223 L18.5810811,9.12288851 L19.2670608,10.5129223 C19.4129223,10.808277 19.6945946,11.0130068 20.0206081,11.0603885 L21.5545608,11.2833615 L20.4445946,12.3652872 Z" id="Shape"></path>
                    </g>
                </g>
            </g>
        </g>
    </g>
</svg>