<?xml version="1.0" encoding="UTF-8"?>
<svg width="250px" height="250px" viewBox="0 0 250 250" version="1.1" xmlns="http://www.w3.org/2000/svg" xmlns:xlink="http://www.w3.org/1999/xlink">
    <!-- Generator: sketchtool 52.5 (67469) - http://www.bohemiancoding.com/sketch -->
    <title>DD6D84EF-4EE2-4299-ABE6-2D18B4E7D4FC</title>
    <desc>Created with sketchtool.</desc>
    <defs>
        <polygon id="path-1" points="0 0 249.999709 0 249.999709 249.999767 0 249.999767"></polygon>
        <polygon id="path-3" points="0 250 250 250 250 0 0 0"></polygon>
    </defs>
    <g id="Основные-экраны" stroke="none" stroke-width="1" fill="none" fill-rule="evenodd">
        <g id="главная-диз-1.1" transform="translate(-898.000000, -2959.000000)">
            <g id="2" transform="translate(834.000000, 2909.000000)">
                <g id="Group-26" transform="translate(64.000000, 50.000000)">
                    <g id="2">
                        <g id="Group-3">
                            <mask id="mask-2" fill="white">
                                <use xlink:href="#path-1"></use>
                            </mask>
                            <g id="Clip-2"></g>
                            <path d="M249.999709,124.999767 C249.999709,194.035233 194.035174,249.999767 124.999709,249.999767 C55.9642442,249.999767 -0.000290697674,194.035233 -0.000290697674,124.999767 C-0.000290697674,55.9643023 55.9642442,-0.00023255814 124.999709,-0.00023255814 C194.035174,-0.00023255814 249.999709,55.9643023 249.999709,124.999767" id="Fill-1" fill="#75BA65" mask="url(#mask-2)"></path>
                        </g>
                        <path d="M142.647151,184.42186 L113.577965,184.42186 C113.577965,197.276512 108.990174,207.678256 96.1361047,207.678256 L160.089012,207.678256 C147.23436,207.678256 142.647151,197.276512 142.647151,184.42186" id="Fill-4" fill="#66797A"></path>
                        <path d="M136.833721,175.70093 L119.39186,175.70093 C117.787209,175.70093 116.484884,174.399186 116.484884,172.794535 C116.484884,171.189884 117.787209,169.887558 119.39186,169.887558 L136.833721,169.887558 C138.438372,169.887558 139.740116,171.189884 139.740116,172.794535 C139.740116,174.399186 138.438372,175.70093 136.833721,175.70093" id="Fill-6" fill="#5B4678"></path>
                        <path d="M93.2290698,207.678256 C93.2290698,206.073605 94.5313953,204.771279 96.1360465,204.771279 C105.781395,204.771279 110.67093,197.925349 110.67093,184.422442 C110.67093,182.817791 111.973256,181.515465 113.577907,181.515465 L142.647093,181.515465 C144.251744,181.515465 145.55407,182.817791 145.55407,184.422442 C145.55407,197.925349 150.443605,204.771279 160.088953,204.771279 C161.693605,204.771279 162.99593,206.073605 162.99593,207.678256 C162.99593,209.282907 93.2290698,207.678256 93.2290698,207.678256" id="Fill-8" fill="#E5E4E2"></path>
                        <path d="M95.735814,206.280988 C119.070116,206.795523 153.690465,207.265872 161.086395,206.622267 C160.82593,206.375756 160.475349,206.224593 160.089302,206.224593 C146.874767,206.224593 144.10093,194.368779 144.10093,184.422267 C144.10093,183.620523 143.448605,182.968779 142.647442,182.968779 L113.577674,182.968779 C112.776512,182.968779 112.124186,183.620523 112.124186,184.422267 C112.124186,194.368779 109.350349,206.224593 96.135814,206.224593 C95.9968605,206.224593 95.8631395,206.24436 95.735814,206.280988 M145.263721,209.850174 C140.627093,209.850174 134.811395,209.812384 127.50093,209.726337 C110.448605,209.525756 93.3666279,209.135058 93.1956977,209.130988 L91.7753488,209.099012 L91.7753488,207.678081 C91.7753488,205.274012 93.7317442,203.317616 96.135814,203.317616 C104.938721,203.317616 109.217209,197.136802 109.217209,184.422267 C109.217209,182.018198 111.173605,180.061802 113.577674,180.061802 L142.647442,180.061802 C145.051512,180.061802 147.007907,182.018198 147.007907,184.422267 C147.007907,197.136802 151.286395,203.317616 160.089302,203.317616 C162.493372,203.317616 164.449767,205.274012 164.449767,207.678081 C164.449767,208.090291 164.284651,208.478663 163.985233,208.771105 C163.440465,209.303663 162.878256,209.850174 145.263721,209.850174" id="Fill-10" fill="#3C4A53"></path>
                        <path d="M215.322093,169.183547 L40.9034884,169.183547 L40.9034884,65.2393605 C40.9034884,58.8155233 46.1104651,53.6079651 52.5343023,53.6079651 L203.690698,53.6079651 C210.114535,53.6079651 215.322093,58.8155233 215.322093,65.2393605 L215.322093,169.183547 Z" id="Fill-12" fill="#E5E4E2"></path>
                        <path d="M42.3569767,167.730058 L213.868605,167.730058 L213.868605,65.2393605 C213.868605,59.6271512 209.302326,55.0614535 203.690698,55.0614535 L52.5343023,55.0614535 C46.9226744,55.0614535 42.3569767,59.6271512 42.3569767,65.2393605 L42.3569767,167.730058 Z M216.775581,170.637035 L39.45,170.637035 L39.45,65.2393605 C39.45,58.0242442 45.3197674,52.1544767 52.5343023,52.1544767 L203.690698,52.1544767 C210.905814,52.1544767 216.775581,58.0242442 216.775581,65.2393605 L216.775581,170.637035 Z" id="Fill-14" fill="#3C4A53"></path>
                        <path d="M200.355698,164.073605 L55.0068605,164.073605 C53.4010465,164.073605 52.0998837,162.77186 52.0998837,161.166628 L52.0998837,68.1433721 C52.0998837,66.5375581 53.4010465,65.2363953 55.0068605,65.2363953 L200.355698,65.2363953 C201.96093,65.2363953 203.262674,66.5375581 203.262674,68.1433721 L203.262674,161.166628 C203.262674,162.77186 201.96093,164.073605 200.355698,164.073605" id="Fill-16" fill="#75BA65"></path>
                        <path d="M55.0069186,66.6898837 C54.2051744,66.6898837 53.5534302,67.3416279 53.5534302,68.1433721 L53.5534302,161.166628 C53.5534302,161.968372 54.2051744,162.620116 55.0069186,162.620116 L200.355756,162.620116 C201.1575,162.620116 201.809244,161.968372 201.809244,161.166628 L201.809244,68.1433721 C201.809244,67.3416279 201.1575,66.6898837 200.355756,66.6898837 L55.0069186,66.6898837 Z M200.355756,165.527093 L55.0069186,165.527093 C52.6022674,165.527093 50.6464535,163.571279 50.6464535,161.166628 L50.6464535,68.1433721 C50.6464535,65.7387209 52.6022674,63.782907 55.0069186,63.782907 L200.355756,63.782907 C202.760407,63.782907 204.716221,65.7387209 204.716221,68.1433721 L204.716221,161.166628 C204.716221,163.571279 202.760407,165.527093 200.355756,165.527093 Z" id="Fill-18" fill="#3C4A53"></path>
                        <path d="M165.82343,216.398605 L87.4937791,216.398605 C84.2391279,216.398605 81.6007558,213.760233 81.6007558,210.505 C81.6007558,207.250349 84.2391279,204.611977 87.4937791,204.611977 L165.82343,204.611977 C169.078663,204.611977 171.717035,207.250349 171.717035,210.505 C171.717035,213.760233 169.078663,216.398605 165.82343,216.398605" id="Fill-20" fill="#E5E4E2"></path>
                        <path d="M87.4940698,206.065233 C85.045814,206.065233 83.0539535,208.057093 83.0539535,210.505349 C83.0539535,212.953605 85.045814,214.944884 87.4940698,214.944884 L165.823721,214.944884 C168.271395,214.944884 170.263256,212.953605 170.263256,210.505349 C170.263256,208.057093 168.271395,206.065233 165.823721,206.065233 L87.4940698,206.065233 Z M165.823721,217.85186 L87.4940698,217.85186 C83.442907,217.85186 80.1469767,214.55593 80.1469767,210.505349 C80.1469767,206.454186 83.442907,203.158256 87.4940698,203.158256 L165.823721,203.158256 C169.874302,203.158256 173.170233,206.454186 173.170233,210.505349 C173.170233,214.55593 169.874302,217.85186 165.823721,217.85186 Z" id="Fill-22" fill="#3C4A53"></path>
                        <path d="M237.098895,120.029477 L237.098895,124.389942 C237.098895,125.192849 236.448314,125.84343 235.645407,125.84343 C234.8425,125.84343 234.191919,125.192849 234.191919,124.389942 L234.191919,120.029477 L229.831453,120.029477 C229.028547,120.029477 228.377965,119.378895 228.377965,118.575988 C228.377965,117.773081 229.028547,117.1225 229.831453,117.1225 L234.191919,117.1225 L234.191919,112.762035 C234.191919,111.959128 234.8425,111.308547 235.645407,111.308547 C236.448314,111.308547 237.098895,111.959128 237.098895,112.762035 L237.098895,117.1225 L241.45936,117.1225 C242.262267,117.1225 242.912849,117.773081 242.912849,118.575988 C242.912849,119.378895 242.262267,120.029477 241.45936,120.029477 L237.098895,120.029477 Z" id="Combined-Shape" fill-opacity="0.5" fill="#FFFFFF"></path>
                        <path d="M19.6110465,185.875349 L19.6110465,190.235814 C19.6110465,191.038721 18.9604651,191.689302 18.1575581,191.689302 C17.3546512,191.689302 16.7040698,191.038721 16.7040698,190.235814 L16.7040698,185.875349 L12.3436047,185.875349 C11.5406977,185.875349 10.8901163,185.224767 10.8901163,184.42186 C10.8901163,183.618953 11.5406977,182.968372 12.3436047,182.968372 L16.7040698,182.968372 L16.7040698,178.607907 C16.7040698,177.805 17.3546512,177.154419 18.1575581,177.154419 C18.9604651,177.154419 19.6110465,177.805 19.6110465,178.607907 L19.6110465,182.968372 L23.9715116,182.968372 C24.7744186,182.968372 25.425,183.618953 25.425,184.42186 C25.425,185.224767 24.7744186,185.875349 23.9715116,185.875349 L19.6110465,185.875349 Z" id="Combined-Shape" fill-opacity="0.5" fill="#FFFFFF"></path>
                        <path d="M175.091686,159.202151 L79.9114535,159.202151 C78.6271512,159.202151 77.5858721,158.161453 77.5858721,156.87657 L77.5858721,35.9271512 C77.5858721,34.6428488 78.6271512,33.6015698 79.9114535,33.6015698 L175.091686,33.6015698 C176.375988,33.6015698 177.417267,34.6428488 177.417267,35.9271512 L177.417267,156.87657 C177.417267,158.161453 176.375988,159.202151 175.091686,159.202151" id="Fill-32" fill="#9DD3DA"></path>
                        <path d="M79.9115116,35.0549419 C79.4306977,35.0549419 79.0394186,35.4462209 79.0394186,35.9270349 L79.0394186,156.876453 C79.0394186,157.357267 79.4306977,157.748547 79.9115116,157.748547 L175.091744,157.748547 C175.572558,157.748547 175.963837,157.357267 175.963837,156.876453 L175.963837,35.9270349 C175.963837,35.4462209 175.572558,35.0549419 175.091744,35.0549419 L79.9115116,35.0549419 Z M175.091744,160.655523 L79.9115116,160.655523 C77.8277907,160.655523 76.1324419,158.960174 76.1324419,156.876453 L76.1324419,35.9270349 C76.1324419,33.843314 77.8277907,32.1479651 79.9115116,32.1479651 L175.091744,32.1479651 C177.175465,32.1479651 178.870814,33.843314 178.870814,35.9270349 L178.870814,156.876453 C178.870814,158.960174 177.175465,160.655523 175.091744,160.655523 Z" id="Fill-34" fill="#394750"></path>
                        <path d="M165.585,66.4270349 L88.9588372,66.4270349 C88.3169767,66.4270349 87.7960465,65.9061047 87.7960465,65.2642442 L87.7960465,52.3712209 C87.7960465,51.7293605 88.3169767,51.2084302 88.9588372,51.2084302 L165.585,51.2084302 C166.22686,51.2084302 166.747791,51.7293605 166.747791,52.3712209 L166.747791,65.2642442 C166.747791,65.9061047 166.22686,66.4270349 165.585,66.4270349" id="Fill-36" fill="#DEC056"></path>
                        <mask id="mask-4" fill="white">
                            <use xlink:href="#path-3"></use>
                        </mask>
                        <g id="Clip-39"></g>
                        <path d="M89.2494186,64.9732558 L165.294186,64.9732558 L165.294186,52.6616279 L89.2494186,52.6616279 L89.2494186,64.9732558 Z M165.584884,67.8802326 L88.9587209,67.8802326 C87.5162791,67.8802326 86.3424419,66.7069767 86.3424419,65.2639535 L86.3424419,52.3715116 C86.3424419,50.9284884 87.5162791,49.7552326 88.9587209,49.7552326 L165.584884,49.7552326 C167.027907,49.7552326 168.201163,50.9284884 168.201163,52.3715116 L168.201163,65.2639535 C168.201163,66.7069767 167.027907,67.8802326 165.584884,67.8802326 Z" id="Fill-38" fill="#3C4A53" mask="url(#mask-4)"></path>
                        <path d="M89.4352326,81.5907558 C88.9544186,81.5907558 88.5631395,81.9820349 88.5631395,82.4628488 L88.5631395,90.5297093 C88.5631395,91.0105233 88.9544186,91.4018023 89.4352326,91.4018023 L97.502093,91.4018023 C97.982907,91.4018023 98.374186,91.0105233 98.374186,90.5297093 L98.374186,82.4628488 C98.374186,81.9820349 97.982907,81.5907558 97.502093,81.5907558 L89.4352326,81.5907558 Z M97.502093,94.3087791 L89.4352326,94.3087791 C87.3515116,94.3087791 85.6561628,92.6134302 85.6561628,90.5297093 L85.6561628,82.4628488 C85.6561628,80.3791279 87.3515116,78.6837791 89.4352326,78.6837791 L97.502093,78.6837791 C99.585814,78.6837791 101.281163,80.3791279 101.281163,82.4628488 L101.281163,90.5297093 C101.281163,92.6134302 99.585814,94.3087791 97.502093,94.3087791 Z" id="Fill-40" fill="#394750" mask="url(#mask-4)"></path>
                        <path d="M162.995988,85.2000581 L109.291337,85.2000581 C108.48843,85.2000581 107.837849,84.5494767 107.837849,83.7465698 C107.837849,82.9436628 108.48843,82.2930814 109.291337,82.2930814 L162.995988,82.2930814 C163.798895,82.2930814 164.449477,82.9436628 164.449477,83.7465698 C164.449477,84.5494767 163.798895,85.2000581 162.995988,85.2000581" id="Fill-41" fill="#394750" mask="url(#mask-4)"></path>
                        <path d="M149.716395,92.4436047 L109.621628,92.4436047 C108.818721,92.4436047 108.16814,91.7930233 108.16814,90.9901163 C108.16814,90.1872093 108.818721,89.5366279 109.621628,89.5366279 L149.716395,89.5366279 C150.519302,89.5366279 151.169884,90.1872093 151.169884,90.9901163 C151.169884,91.7930233 150.519302,92.4436047 149.716395,92.4436047" id="Fill-42" fill="#394750" mask="url(#mask-4)"></path>
                        <path d="M162.995988,109.696453 L109.291337,109.696453 C108.48843,109.696453 107.837849,109.045872 107.837849,108.242965 C107.837849,107.440058 108.48843,106.789477 109.291337,106.789477 L162.995988,106.789477 C163.798895,106.789477 164.449477,107.440058 164.449477,108.242965 C164.449477,109.045872 163.798895,109.696453 162.995988,109.696453" id="Fill-43" fill="#394750" mask="url(#mask-4)"></path>
                        <path d="M146.803198,116.94 L109.621802,116.94 C108.818895,116.94 108.168314,116.289419 108.168314,115.486512 C108.168314,114.683605 108.818895,114.033023 109.621802,114.033023 L146.803198,114.033023 C147.606105,114.033023 148.256686,114.683605 148.256686,115.486512 C148.256686,116.289419 147.606105,116.94 146.803198,116.94" id="Fill-44" fill="#394750" mask="url(#mask-4)"></path>
                        <path d="M89.4352326,106.959186 C88.9544186,106.959186 88.5631395,107.350465 88.5631395,107.831279 L88.5631395,115.89814 C88.5631395,116.378953 88.9544186,116.770233 89.4352326,116.770233 L97.502093,116.770233 C97.982907,116.770233 98.374186,116.378953 98.374186,115.89814 L98.374186,107.831279 C98.374186,107.350465 97.982907,106.959186 97.502093,106.959186 L89.4352326,106.959186 Z M97.502093,119.677209 L89.4352326,119.677209 C87.3515116,119.677209 85.6561628,117.98186 85.6561628,115.89814 L85.6561628,107.831279 C85.6561628,105.747558 87.3515116,104.052209 89.4352326,104.052209 L97.502093,104.052209 C99.585814,104.052209 101.281163,105.747558 101.281163,107.831279 L101.281163,115.89814 C101.281163,117.98186 99.585814,119.677209 97.502093,119.677209 Z" id="Fill-45" fill="#394750" mask="url(#mask-4)"></path>
                        <path d="M162.995988,134.115058 L109.291337,134.115058 C108.48843,134.115058 107.837849,133.464477 107.837849,132.66157 C107.837849,131.858663 108.48843,131.208081 109.291337,131.208081 L162.995988,131.208081 C163.798895,131.208081 164.449477,131.858663 164.449477,132.66157 C164.449477,133.464477 163.798895,134.115058 162.995988,134.115058" id="Fill-46" fill="#394750" mask="url(#mask-4)"></path>
                        <path d="M146.803198,141.358605 L109.621802,141.358605 C108.818895,141.358605 108.168314,140.708023 108.168314,139.905116 C108.168314,139.102209 108.818895,138.451628 109.621802,138.451628 L146.803198,138.451628 C147.606105,138.451628 148.256686,139.102209 148.256686,139.905116 C148.256686,140.708023 147.606105,141.358605 146.803198,141.358605" id="Fill-47" fill="#394750" mask="url(#mask-4)"></path>
                        <path d="M89.4352326,131.377791 C88.9544186,131.377791 88.5631395,131.76907 88.5631395,132.249884 L88.5631395,140.316744 C88.5631395,140.797558 88.9544186,141.188837 89.4352326,141.188837 L97.502093,141.188837 C97.982907,141.188837 98.374186,140.797558 98.374186,140.316744 L98.374186,132.249884 C98.374186,131.76907 97.982907,131.377791 97.502093,131.377791 L89.4352326,131.377791 Z M97.502093,144.095814 L89.4352326,144.095814 C87.3515116,144.095814 85.6561628,142.400465 85.6561628,140.316744 L85.6561628,132.249884 C85.6561628,130.166163 87.3515116,128.470814 89.4352326,128.470814 L97.502093,128.470814 C99.585814,128.470814 101.281163,130.166163 101.281163,132.249884 L101.281163,140.316744 C101.281163,142.400465 99.585814,144.095814 97.502093,144.095814 Z" id="Fill-48" fill="#394750" mask="url(#mask-4)"></path>
                        <path d="M203.691395,187.329419 L52.5344186,187.329419 C46.1105814,187.329419 40.9036047,182.12186 40.9036047,175.698605 L40.9036047,158.259651 L215.321628,158.259651 L215.321628,175.698605 C215.322209,182.110814 210.104186,187.329419 203.691395,187.329419" id="Fill-49" fill="#E5E4E2" mask="url(#mask-4)"></path>
                        <path d="M42.3569767,159.71314 L42.3569767,175.698605 C42.3569767,181.310233 46.9226744,185.87593 52.5343023,185.87593 L203.691279,185.87593 C206.404651,185.87593 208.959302,184.816047 210.883721,182.891047 C212.808721,180.966047 213.868023,178.411977 213.868023,175.698605 L213.868023,159.71314 L42.3569767,159.71314 Z M203.691279,188.782907 L52.5343023,188.782907 C45.3197674,188.782907 39.45,182.91314 39.45,175.698605 L39.45,156.806163 L216.775,156.806163 L216.775,175.698605 C216.775581,179.18814 215.412791,182.472442 212.938953,184.946279 C210.465116,187.420116 207.181395,188.782907 203.691279,188.782907 Z" id="Fill-50" fill="#3B4951" mask="url(#mask-4)"></path>
                        <path d="M137.345291,174.248023 L119.641221,174.248023 C118.838314,174.248023 118.187733,173.597442 118.187733,172.794535 C118.187733,171.991628 118.838314,171.341047 119.641221,171.341047 L137.345291,171.341047 C138.148198,171.341047 138.798779,171.991628 138.798779,172.794535 C138.798779,173.597442 138.148198,174.248023 137.345291,174.248023" id="Fill-51" fill="#3C4A53" mask="url(#mask-4)"></path>
                        <path d="M237.596802,170.064128 C237.596802,187.816453 223.206105,202.207733 205.453779,202.207733 C187.701453,202.207733 173.310174,187.816453 173.310174,170.064128 C173.310174,152.311802 187.701453,137.920523 205.453779,137.920523 C223.206105,137.920523 237.596802,152.311802 237.596802,170.064128" id="Fill-52" fill="#FFD034" mask="url(#mask-4)"></path>
                        <path d="M205.453721,139.373953 C188.531628,139.373953 174.763605,153.141977 174.763605,170.06407 C174.763605,186.986744 188.531628,200.754186 205.453721,200.754186 C222.375814,200.754186 236.143256,186.986744 236.143256,170.06407 C236.143256,153.141977 222.375814,139.373953 205.453721,139.373953 M205.453721,203.661163 C186.92814,203.661163 171.856628,188.589651 171.856628,170.06407 C171.856628,151.538488 186.92814,136.466977 205.453721,136.466977 C223.978721,136.466977 239.050233,151.538488 239.050233,170.06407 C239.050233,188.589651 223.978721,203.661163 205.453721,203.661163" id="Fill-53" fill="#3B4951" mask="url(#mask-4)"></path>
                        <path d="M230.939186,171.226919 C230.297326,171.226919 229.776395,170.705988 229.776395,170.064128 C229.776395,166.809477 229.14093,163.64843 227.888605,160.668779 C227.639767,160.076337 227.918256,159.39436 228.509535,159.146105 C229.105465,158.897267 229.784535,159.175174 230.032209,159.767035 C231.406047,163.033895 232.101977,166.49843 232.101977,170.064128 C232.101977,170.705988 231.581047,171.226919 230.939186,171.226919" id="Fill-54" fill="#3B4951" mask="url(#mask-4)"></path>
                        <path d="M226.408372,156.73407 C226.039767,156.73407 225.677558,156.559651 225.451395,156.23407 C221.852558,151.046279 216.489186,147.495116 210.349651,146.235814 C209.720581,146.107326 209.315349,145.492209 209.444419,144.86314 C209.57407,144.234651 210.188605,143.827093 210.817674,143.957907 C217.545,145.33814 223.420581,149.227093 227.363023,154.908488 C227.728721,155.436395 227.597907,156.160814 227.07,156.527093 C226.867674,156.667209 226.637442,156.73407 226.408372,156.73407" id="Fill-55" fill="#3B4951" mask="url(#mask-4)"></path>
                        <path d="M205.453721,188.891919 C195.072326,188.891919 186.625814,180.445988 186.625814,170.064012 C186.625814,159.682616 195.072326,151.236105 205.453721,151.236105 C215.835116,151.236105 224.281047,159.682616 224.281047,170.064012 C224.281047,180.445988 215.835116,188.891919 205.453721,188.891919" id="Fill-56" fill="#E5E4E2" mask="url(#mask-4)"></path>
                        <path d="M205.453721,152.689826 C195.873488,152.689826 188.079302,160.484012 188.079302,170.064244 C188.079302,179.643895 195.873488,187.438663 205.453721,187.438663 C215.033953,187.438663 222.827558,179.643895 222.827558,170.064244 C222.827558,160.484012 215.033953,152.689826 205.453721,152.689826 M205.453721,190.34564 C194.270581,190.34564 185.172326,181.247384 185.172326,170.064244 C185.172326,158.880523 194.270581,149.782849 205.453721,149.782849 C216.636279,149.782849 225.734535,158.880523 225.734535,170.064244 C225.734535,181.247384 216.636279,190.34564 205.453721,190.34564" id="Fill-57" fill="#3C4A53" mask="url(#mask-4)"></path>
                        <path d="M205.231163,172.208605 C204.589302,172.208605 204.068372,171.687674 204.068372,171.045814 L204.068372,159.739419 C204.068372,159.096977 204.589302,158.576628 205.231163,158.576628 C205.873023,158.576628 206.393953,159.096977 206.393953,159.739419 L206.393953,171.045814 C206.393953,171.687674 205.873023,172.208605 205.231163,172.208605" id="Fill-58" fill="#3B4951" mask="url(#mask-4)"></path>
                        <path d="M216.039767,172.208605 L205.231047,172.208605 C204.589186,172.208605 204.068256,171.687674 204.068256,171.045814 C204.068256,170.403953 204.589186,169.883023 205.231047,169.883023 L216.039767,169.883023 C216.681628,169.883023 217.202558,170.403953 217.202558,171.045814 C217.202558,171.687674 216.681628,172.208605 216.039767,172.208605" id="Fill-59" fill="#3B4951" mask="url(#mask-4)"></path>
                        <polygon id="Fill-60" fill="#FFD034" mask="url(#mask-4)" points="8.54069767 113.343605 27.7819767 113.343605 27.7819767 44.8784884 8.54069767 44.8784884"></polygon>
                        <path d="M9.99418605,111.890116 L26.3284884,111.890116 L26.3284884,46.3319767 L9.99418605,46.3319767 L9.99418605,111.890116 Z M27.7819767,114.797093 L8.54069767,114.797093 C7.7377907,114.797093 7.0872093,114.146512 7.0872093,113.343605 L7.0872093,44.8784884 C7.0872093,44.0755814 7.7377907,43.425 8.54069767,43.425 L27.7819767,43.425 C28.5848837,43.425 29.2354651,44.0755814 29.2354651,44.8784884 L29.2354651,113.343605 C29.2354651,114.146512 28.5848837,114.797093 27.7819767,114.797093 Z" id="Fill-61" fill="#3B4951" mask="url(#mask-4)"></path>
                        <path d="M27.7818023,44.8784884 L8.54052326,44.8784884 L8.54052326,37.305814 C8.54052326,35.3994186 10.0858721,33.8546512 11.991686,33.8546512 L24.3306395,33.8546512 C26.2364535,33.8546512 27.7818023,35.3994186 27.7818023,37.305814 L27.7818023,44.8784884 Z" id="Fill-62" fill="#FFD034" mask="url(#mask-4)"></path>
                        <path d="M9.99418605,43.425 L26.3284884,43.425 L26.3284884,37.305814 C26.3284884,36.2040698 25.4325581,35.3081395 24.330814,35.3081395 L11.9918605,35.3081395 C10.8901163,35.3081395 9.99418605,36.2040698 9.99418605,37.305814 L9.99418605,43.425 Z M27.7819767,46.3319767 L8.54069767,46.3319767 C7.7377907,46.3319767 7.0872093,45.6813953 7.0872093,44.8784884 L7.0872093,37.305814 C7.0872093,34.6011628 9.2872093,32.4011628 11.9918605,32.4011628 L24.330814,32.4011628 C27.0354651,32.4011628 29.2354651,34.6011628 29.2354651,37.305814 L29.2354651,44.8784884 C29.2354651,45.6813953 28.5848837,46.3319767 27.7819767,46.3319767 Z" id="Fill-63" fill="#3B4951" mask="url(#mask-4)"></path>
                        <path d="M19.6145349,111.890116 L26.3284884,111.890116 L26.3284884,46.3319767 L19.6145349,46.3319767 L19.6145349,111.890116 Z M27.7819767,114.797093 L18.1610465,114.797093 C17.3581395,114.797093 16.7075581,114.146512 16.7075581,113.343605 L16.7075581,44.8784884 C16.7075581,44.0755814 17.3581395,43.425 18.1610465,43.425 L27.7819767,43.425 C28.5848837,43.425 29.2354651,44.0755814 29.2354651,44.8784884 L29.2354651,113.343605 C29.2354651,114.146512 28.5848837,114.797093 27.7819767,114.797093 Z" id="Fill-64" fill="#38464F" mask="url(#mask-4)"></path>
                        <path d="M17.682907,126.961395 L8.54046512,113.343372 L27.7817442,113.343372 L18.6398837,126.961395 C18.4061628,127.30907 17.9154651,127.30907 17.682907,126.961395" id="Fill-65" fill="#FFD034" mask="url(#mask-4)"></path>
                        <path d="M11.267093,114.796919 L18.1606977,125.066105 L25.0554651,114.796919 L11.267093,114.796919 Z M18.8903488,126.152151 L18.8961628,126.152151 L18.8903488,126.152151 Z M18.1606977,128.675407 L18.1595349,128.675407 C17.4845349,128.674826 16.8554651,128.337035 16.4763953,127.771337 L7.33395349,114.153895 C7.03453488,113.707965 7.00546512,113.133547 7.2577907,112.659709 C7.51069767,112.185872 8.00372093,111.889942 8.54093023,111.889942 L27.7816279,111.889942 C28.3188372,111.889942 28.8118605,112.185872 29.064186,112.659709 C29.317093,113.133547 29.2880233,113.707965 28.9880233,114.153895 L19.8461628,127.771337 C19.4665116,128.337616 18.8362791,128.675407 18.1606977,128.675407 Z" id="Fill-66" fill="#3B4951" mask="url(#mask-4)"></path>
                        <path d="M17.682907,126.961395 L13.7817442,121.15093 L22.5334884,121.161395 L18.6398837,126.961395 C18.4061628,127.30907 17.9154651,127.30907 17.682907,126.961395" id="Fill-67" fill="#3B4951" mask="url(#mask-4)"></path>
                        <path d="M16.5104651,122.607733 L18.1610465,125.066453 L19.8093023,122.611802 L16.5104651,122.607733 Z M18.8906977,126.1525 L18.8965116,126.1525 L18.8906977,126.1525 Z M18.1610465,128.675756 L18.1598837,128.675756 C17.4848837,128.675174 16.855814,128.336802 16.4761628,127.771686 L12.575,121.961221 C12.2755814,121.514709 12.2465116,120.940291 12.5,120.465872 C12.7523256,119.993198 13.2453488,119.697267 13.7819767,119.697267 L13.7837209,119.697267 L22.5348837,119.708314 C23.0715116,119.708895 23.5645349,120.004826 23.8162791,120.478663 C24.0686047,120.951919 24.0389535,121.526337 23.7401163,121.971686 L19.8459302,127.771686 C19.4662791,128.337384 18.8360465,128.675756 18.1610465,128.675756 Z" id="Fill-68" fill="#3C4A53" mask="url(#mask-4)"></path>
                        <path d="M228.957093,39.1826163 C226.723953,39.1826163 224.816395,40.8942442 224.616395,43.1599419 C224.405349,45.5547093 226.182674,47.6750581 228.577442,47.8872674 C229.735581,47.9878488 230.86814,47.6337791 231.760581,46.8855233 C232.653023,46.1378488 233.20186,45.086686 233.304186,43.9262209 C233.40593,42.7663372 233.050698,41.6361047 232.302442,40.7430814 C231.554767,39.8500581 230.503605,39.3018023 229.343721,39.1994767 C229.21407,39.1884302 229.085,39.1826163 228.957093,39.1826163 M228.972791,50.811686 C228.756512,50.811686 228.539651,50.8018023 228.321628,50.7826163 C224.329767,50.4302907 221.368721,46.8959884 221.721047,42.9041279 C222.072791,38.9128488 225.605349,35.9518023 229.598953,36.3041279 C231.533256,36.4744767 233.283837,37.3878488 234.53093,38.8762209 C235.777442,40.3640116 236.370465,42.2477326 236.199535,44.1820349 C236.029186,46.1157558 235.115814,47.8675 233.627442,49.1140116 C232.307674,50.2198256 230.675116,50.811686 228.972791,50.811686" id="Fill-69" fill-opacity="0.5" fill="#FFFFFF" mask="url(#mask-4)"></path>
                    </g>
                </g>
            </g>
        </g>
    </g>
</svg>