<?xml version="1.0" encoding="UTF-8"?>
<svg width="60px" height="60px" viewBox="0 0 60 60" version="1.1" xmlns="http://www.w3.org/2000/svg" xmlns:xlink="http://www.w3.org/1999/xlink">
    <!-- Generator: sketchtool 52.5 (67469) - http://www.bohemiancoding.com/sketch -->
    <title>2261DF86-68F2-4057-9893-B9C8E2C8AA46</title>
    <desc>Created with sketchtool.</desc>
    <g id="Мои-экраны" stroke="none" stroke-width="1" fill="none" fill-rule="evenodd">
        <g id="0_UI-kit" transform="translate(-222.000000, -3682.000000)">
            <g id="Group-29" transform="translate(222.000000, 3682.000000)">
                <g id="Group-25">
                    <circle id="Oval-Copy" fill="#FFFFFF" fill-rule="nonzero" cx="30" cy="30" r="30"></circle>
                    <g id="бутон" transform="translate(18.000000, 14.000000)">
                        <polygon id="Fill-1" fill="#76B82A" points="12 16 8 20 4 16 8 12"></polygon>
                        <polygon id="Fill-2" fill="#76B82A" points="0 12 4.00037732 16 8 12 4.00037732 8"></polygon>
                        <polygon id="Fill-3" fill="#76B82A" points="16 20 12 24 8 20 12 16"></polygon>
                        <polygon id="Fill-4" fill="#76B82A" points="8 28 12 32 16 28 12 24"></polygon>
                        <polygon id="Fill-5" fill="#6EA027" points="20 16 16.0003773 20 12 16 16.0003773 12"></polygon>
                        <polygon id="Fill-6" fill="#6EA027" points="16 12 20 16 24 12 20 8"></polygon>
                        <polygon id="Fill-7" fill="#EFB600" points="12 8 8 12 4 8 8 4"></polygon>
                        <polygon id="Fill-8" fill="#FFDA00" points="20 8 16.0003773 12 12 8 16.0003773 4"></polygon>
                        <polygon id="Fill-9" fill="#FFDA00" points="8 3.99924528 12 8 16 3.99924528 12 0"></polygon>
                        <polygon id="Fill-10" fill="#EFB600" points="16 12 12 16 8 12 12 8"></polygon>
                    </g>
                </g>
            </g>
        </g>
    </g>
</svg>