<?xml version="1.0" encoding="UTF-8"?>
<svg width="80px" height="80px" viewBox="0 0 80 80" version="1.1" xmlns="http://www.w3.org/2000/svg" xmlns:xlink="http://www.w3.org/1999/xlink">
    <!-- Generator: sketchtool 52.5 (67469) - http://www.bohemiancoding.com/sketch -->
    <title>8D447BA4-77BB-468F-ACCD-F36A384702B0</title>
    <desc>Created with sketchtool.</desc>
    <g id="Основные-экраны" stroke="none" stroke-width="1" fill="none" fill-rule="evenodd">
        <g id="главная-диз-1.1" transform="translate(-680.000000, -5056.000000)">
            <g id="видео" transform="translate(0.000000, 4602.000000)">
                <g id="иконка" transform="translate(680.000000, 454.000000)">
                    <circle id="Oval-16" fill="#FFFFFF" opacity="0.2" cx="40" cy="40" r="40"></circle>
                    <path d="M39.6493271,20.3508772 C28.9965828,20.3508772 20.3508772,28.9965828 20.3508772,39.6493271 C20.3508772,50.3020715 28.9965828,58.9477771 39.6493271,58.9477771 C50.3020715,58.9477771 58.9477771,50.3020715 58.9477771,39.6493271 C58.9477771,28.9965828 50.3020715,20.3508772 39.6493271,20.3508772 Z M35.7896371,46.3336296 L35.7896371,32.9650247 C35.7896371,32.4127399 36.2373524,31.9650247 36.7896371,31.9650247 C37.0060074,31.9650247 37.216541,32.0352025 37.3896371,32.1650247 L46.3020404,38.8493271 C46.7438682,39.180698 46.8334113,39.8074993 46.5020404,40.2493271 C46.4451862,40.3251328 46.3778461,40.3924729 46.3020404,40.4493271 L37.3896371,47.1336296 C36.9478093,47.4650005 36.321008,47.3754574 35.9896371,46.9336296 C35.859815,46.7605334 35.7896371,46.5499998 35.7896371,46.3336296 Z" id="Shape" fill="#F2CC35" fill-rule="nonzero"></path>
                </g>
            </g>
        </g>
    </g>
</svg>