<?xml version="1.0" encoding="UTF-8"?>
<svg width="70px" height="70px" viewBox="0 0 70 70" version="1.1" xmlns="http://www.w3.org/2000/svg" xmlns:xlink="http://www.w3.org/1999/xlink">
    <!-- Generator: sketchtool 52.5 (67469) - http://www.bohemiancoding.com/sketch -->
    <title>986BEA00-F61C-4DFD-A352-0E108FF94D97</title>
    <desc>Created with sketchtool.</desc>
    <g id="Основные-экраны" stroke="none" stroke-width="1" fill="none" fill-rule="evenodd">
        <g id="главная-диз-1.1" transform="translate(-415.000000, -6681.000000)">
            <g id="1" transform="translate(375.000000, 6654.000000)">
                <g id="Group-43" transform="translate(40.000000, 27.000000)">
                    <g id="иконка-3">
                        <circle id="Oval-12" fill="#2D2F2E" cx="35" cy="35" r="35"></circle>
                        <path d="M30.596297,47.6029705 C30.596297,47.6029705 34.4186607,45.0788138 37.8082888,47.6029705" id="Stroke-1" stroke="#FFFFFF" stroke-width="2"></path>
                        <path d="M30.8777207,48.689053 C30.8777207,52.2109103 28.0226675,55.0658827 24.5008102,55.0658827 C20.9789529,55.0658827 18.1238997,52.2109103 18.1238997,48.689053 C18.1238997,45.1671957 20.9789529,42.3121425 24.5008102,42.3121425 C28.0226675,42.3121425 30.8777207,45.1671957 30.8777207,48.689053 Z" id="Stroke-3" stroke="#FFFFFF" stroke-width="2"></path>
                        <path d="M15.907071,47.0949789 L17.8671518,47.0949789" id="Stroke-5" stroke="#FFFFFF" stroke-width="2" stroke-linecap="round" stroke-linejoin="round"></path>
                        <path d="M37.648967,48.689053 C37.648967,52.2109103 40.5039394,55.0658827 44.0257967,55.0658827 C47.5477349,55.0658827 50.4027881,52.2109103 50.4027881,48.689053 C50.4027881,45.1671957 47.5477349,42.3121425 44.0257967,42.3121425 C40.5039394,42.3121425 37.648967,45.1671957 37.648967,48.689053 Z" id="Stroke-7" stroke="#FFFFFF" stroke-width="2"></path>
                        <path d="M52.6195359,47.0949789 L50.6595359,47.0949789" id="Stroke-9" stroke="#FFFFFF" stroke-width="2" stroke-linecap="round" stroke-linejoin="round"></path>
                        <path d="M22.0897677,37.2585916 C25.359371,38.559385 29.6826865,39.2756539 34.2635096,39.2756539 C38.8439285,39.2756539 43.1673248,38.559385 46.4371706,37.2585916 C50.0323359,35.828317 52.012138,33.7984844 52.012138,31.5426658 C52.012138,30.2988539 51.3981933,28.4654254 48.4722568,26.7951821 C47.9865809,26.5181149 47.4672011,26.2691747 46.8842122,26.0344597 L46.2108613,25.7634543 C45.6961693,20.5465405 44.3721792,17.4663904 42.1713215,16.356505 C39.6557322,15.0879607 36.8852217,16.8035467 35.229931,17.8286469 C34.9118048,18.0255359 34.497578,18.2819929 34.2635096,18.3949858 C34.0293603,18.2819929 33.6148102,18.0252935 33.2967648,17.8286469 C31.6413933,16.8035467 28.8708019,15.0877182 26.3553743,16.356505 C24.1544357,17.4663904 22.8305265,20.5465405 22.3157537,25.7634543 L21.642726,26.0344597 C21.0597372,26.2691747 20.5401149,26.5181149 20.054439,26.7951821 C17.1285025,28.4654254 16.514477,30.2988539 16.514477,31.5426658 C16.514477,33.7984844 18.4946023,35.828317 22.0897677,37.2585916 Z" id="Stroke-11" stroke="#FFFFFF" stroke-width="2"></path>
                        <path d="M22.3157456,25.7634381 C22.3157456,25.7634381 32.3873976,33.3882018 46.2108532,25.7634381" id="Stroke-13" stroke="#FFFFFF" stroke-width="2"></path>
                    </g>
                </g>
            </g>
        </g>
    </g>
</svg>