<?xml version="1.0" encoding="UTF-8"?>
<svg width="53px" height="53px" viewBox="0 0 53 53" version="1.1" xmlns="http://www.w3.org/2000/svg" xmlns:xlink="http://www.w3.org/1999/xlink">
    <!-- Generator: sketchtool 52.5 (67469) - http://www.bohemiancoding.com/sketch -->
    <title>F9730AA1-F9B4-4642-BAC3-8C6E1C8E3076</title>
    <desc>Created with sketchtool.</desc>
    <defs>
        <path d="M4,0.5 L315,0.5 C317.209139,0.5 319,2.290861 319,4.5 L319,270.5 C319,272.709139 317.209139,274.5 315,274.5 L4,274.5 C1.790861,274.5 2.705415e-16,272.709139 0,270.5 L0,4.5 C-2.705415e-16,2.290861 1.790861,0.5 4,0.5 Z" id="path-1"></path>
        <filter x="-3.3%" y="-3.8%" width="106.6%" height="107.7%" filterUnits="objectBoundingBox" id="filter-2">
            <feOffset dx="0" dy="0" in="SourceAlpha" result="shadowOffsetOuter1"></feOffset>
            <feGaussianBlur stdDeviation="3.5" in="shadowOffsetOuter1" result="shadowBlurOuter1"></feGaussianBlur>
            <feColorMatrix values="0 0 0 0 0.735065901   0 0 0 0 0.735065901   0 0 0 0 0.735065901  0 0 0 0.253991168 0" type="matrix" in="shadowBlurOuter1"></feColorMatrix>
        </filter>
    </defs>
    <g id="Основные-экраны" stroke="none" stroke-width="1" fill="none" fill-rule="evenodd">
        <g id="главная-диз-1.1" transform="translate(-207.000000, -2437.000000)">
            <rect fill="#FFFFFF" x="0" y="0" width="1440" height="7183"></rect>
            <rect id="Rectangle-34" fill="#F5F6F7" x="0" y="2050" width="1440" height="1464"></rect>
            <g id="1" transform="translate(172.000000, 2396.000000)">
                <g id="Rectangle-12">
                    <use fill="black" fill-opacity="1" filter="url(#filter-2)" xlink:href="#path-1"></use>
                    <use fill="#FFFFFF" fill-rule="evenodd" xlink:href="#path-1"></use>
                </g>
                <g id="Group-21" transform="translate(35.000000, 41.000000)" fill-rule="nonzero">
                    <g id="magnifying-glass" transform="translate(26.500000, 26.500000) rotate(-360.000000) translate(-26.500000, -26.500000) ">
                        <path d="M29.6293443,29.4767213 C29.604918,29.5013115 29.5804918,29.5257377 29.5559016,29.5501639 C24.4857377,34.6413115 16.2483607,34.6583607 11.1572131,29.5881967 C6.06622951,24.5180328 6.04918033,16.2806557 11.1193443,11.1895082 C16.1895082,6.09836066 24.4268852,6.08131148 29.5180328,11.1514754 C34.6262295,16.2191803 34.6590164,24.4065574 29.6293443,29.4767213 Z" id="Shape" stroke="#333333" stroke-width="2.5"></path>
                        <path d="M50.3808064,40.6699867 L38.7232787,28.9993443 C43.5065574,18.842459 39.1503279,6.73114754 28.9936066,1.94803279 C18.8367213,-2.8352459 6.72540984,1.52081967 1.94213115,11.6777049 C-2.84114754,21.8345902 1.51508197,33.9459016 11.6718033,38.7290164 C17.1654098,41.3162295 23.5280328,41.3119672 29.0181967,38.717377 L40.6757244,50.3749047 C43.3557244,53.0549047 47.7006424,53.0549047 50.3806424,50.3749047 C53.0606424,47.6949047 53.0606424,43.3499867 50.3808064,40.6699867 Z M20.362623,38.0485246 C10.5918033,38.0829508 2.64295082,30.19 2.60852459,20.4191803 C2.57409836,10.6483607 10.4670492,2.6995082 20.2378689,2.66508197 C30.0086885,2.63065574 37.957541,10.5236066 37.9919672,20.2944262 C38.0085246,24.9767213 36.1680328,29.4747541 32.8740984,32.802623 C29.5737705,36.1554098 25.0670492,38.045082 20.362623,38.0485246 Z M31.4052459,37.4059016 C32.5986885,36.6481967 33.7106557,35.7693443 34.7232787,34.7829508 C35.7111475,33.7716393 36.5901639,32.6595082 37.3462295,31.464918 L40.5986885,34.717377 L34.5921311,40.7239344 L31.4052459,37.4059016 Z M48.531626,48.5257244 C46.8411342,50.1262162 44.2024457,50.1262162 42.5250687,48.5257244 L36.5462295,42.507541 L42.5134426,36.5403279 L48.531626,42.519167 C50.189167,44.1781834 50.189167,46.8665441 48.531626,48.5257244 Z" id="Shape" fill="#333333"></path>
                    </g>
                </g>
            </g>
        </g>
    </g>
</svg>