<?xml version="1.0" encoding="UTF-8"?>
<svg width="49px" height="50px" viewBox="0 0 49 50" version="1.1" xmlns="http://www.w3.org/2000/svg" xmlns:xlink="http://www.w3.org/1999/xlink">
    <!-- Generator: sketchtool 52.5 (67469) - http://www.bohemiancoding.com/sketch -->
    <title>5B6BE6DA-73DD-4F57-97E7-405FD27B681A</title>
    <desc>Created with sketchtool.</desc>
    <g id="Основные-экраны" stroke="none" stroke-width="1" fill="none" fill-rule="evenodd">
        <g id="главная-диз-1.1" transform="translate(-985.000000, -2437.000000)" fill="#333333" fill-rule="nonzero">
            <g id="3" transform="translate(950.000000, 2396.000000)">
                <g id="Group-23" transform="translate(35.000000, 41.000000)">
                    <g id="иконка-1">
                        <g id="blackboard" transform="translate(0.000000, 0.617284)">
                            <path d="M44.5624926,-7.5191866e-14 L4.11138059,-7.5191866e-14 C1.9105529,-7.5191866e-14 0.124601276,1.78041373 0.118140469,3.98124154 L0.118140469,7.65559466 C0.10752628,9.41985646 1.26262626,10.9792184 2.95351173,11.4831613 L2.95351173,33.1619374 C2.95351173,35.6784216 5.03296852,37.674811 7.53745419,37.674811 L23.1555319,37.674811 L23.1555319,41.9043321 L16.2087801,47.2561876 C15.8105175,47.5653834 15.6522277,48.0933236 15.8151324,48.5705003 C15.9775755,49.047677 16.4252171,49.369333 16.9296215,49.3707175 C17.1908227,49.3697944 17.4441786,49.2825736 17.650463,49.1228993 L24.289865,44.0193233 L30.9883373,49.1344365 C31.1936986,49.2959566 31.4475161,49.383639 31.7091788,49.382716 C32.0774447,49.3794856 32.4249439,49.2101201 32.6543026,48.9221528 C32.8458194,48.6734118 32.9298098,48.3586781 32.8878145,48.0480979 C32.8453578,47.7370562 32.6806072,47.4564726 32.4295587,47.2681862 L25.5183413,42.0109353 L25.5183413,37.6868096 L41.0773488,37.6868096 C42.2781359,37.6955779 43.4323128,37.223016 44.2823705,36.3752659 C45.1324281,35.5275156 45.6077589,34.3742617 45.602221,33.173936 L45.602221,11.5066971 C47.3540227,11.0609014 48.5737308,9.47477335 48.5557328,7.6671319 L48.5557328,3.98124154 C48.5492719,1.78041373 46.7633203,-8.52651283e-14 44.5624926,-8.52651283e-14 Z M41.0773488,35.3240002 L7.53745419,35.3240002 C6.33251367,35.3240002 5.31632111,34.3788765 5.31632111,33.173936 L5.31632111,11.6959064 L43.2394457,11.6959064 L43.2394117,33.173936 C43.2426421,33.7471019 43.0155909,34.2976549 42.6090214,34.7019168 C42.2024521,35.1061787 41.6509762,35.3304611 41.0773488,35.3240002 Z M46.1929234,7.70266631 C46.1910774,8.60256436 45.4623907,9.33125111 44.5624926,9.33309705 L4.11138059,9.33309705 C3.21148254,9.33125111 2.48279579,8.60256436 2.48094985,7.70266631 L2.48094985,3.99324012 C2.48279579,3.09334208 3.21148254,2.36465533 4.11138059,2.36280938 L44.5624926,2.36280938 C45.4623907,2.36465533 46.1910774,3.09334208 46.1929234,3.99324012 L46.1929234,7.70266631 Z" id="Shape"></path>
                            <path d="M11.1052041,18.5480536 L21.7378463,18.5480536 C22.3903879,18.5480536 22.919251,18.0191905 22.919251,17.3666489 C22.919251,16.7141074 22.3903879,16.1852443 21.7378463,16.1852443 L11.1052041,16.1852443 C10.4526625,16.1852443 9.9237994,16.7141074 9.9237994,17.3666489 C9.9237994,18.0191905 10.4526625,18.5480536 11.1052041,18.5480536 Z" id="Shape"></path>
                            <path d="M37.5686691,22.0922677 L11.1052041,22.0922677 C10.4526625,22.0922677 9.9237994,22.6211308 9.9237994,23.2736724 C9.9237994,23.926214 10.4526625,24.4550771 11.1052041,24.4550771 L37.5686691,24.4550771 C38.2212107,24.4550771 38.7500738,23.926214 38.7500738,23.2736724 C38.7500738,22.6211308 38.2212107,22.0922677 37.5686691,22.0922677 Z" id="Shape"></path>
                            <path d="M37.5686691,27.9992912 L11.1052041,27.9992912 C10.4526625,27.9992912 9.9237994,28.5281543 9.9237994,29.1806958 C9.9237994,29.8332374 10.4526625,30.3621005 11.1052041,30.3621005 L37.5686691,30.3621005 C38.2212107,30.3621005 38.7500738,29.8332374 38.7500738,29.1806958 C38.7500738,28.5281543 38.2212107,27.9992912 37.5686691,27.9992912 Z" id="Shape"></path>
                        </g>
                    </g>
                </g>
            </g>
        </g>
    </g>
</svg>