<?xml version="1.0" encoding="UTF-8"?>
<svg width="29px" height="19px" viewBox="0 0 29 19" version="1.1" xmlns="http://www.w3.org/2000/svg" xmlns:xlink="http://www.w3.org/1999/xlink">
    <!-- Generator: sketchtool 52.5 (67469) - http://www.bohemiancoding.com/sketch -->
    <title>6D2B6887-0CA9-4873-A656-D4512D43D4CB</title>
    <desc>Created with sketchtool.</desc>
    <g id="Основные-экраны" stroke="none" stroke-width="1" fill="none" fill-rule="evenodd">
        <g id="главная-диз-1.1" transform="translate(-511.000000, -2524.000000)">
            <rect fill="#FFFFFF" x="0" y="0" width="1440" height="7183"></rect>
            <rect id="Rectangle-34" fill="#F5F6F7" x="0" y="2050" width="1440" height="1464"></rect>
            <g id="Group-24" transform="translate(511.000000, 2524.000000)" fill="#333333" fill-rule="nonzero">
                <path d="M19.0063029,0.365650167 L19.0063029,0.365650167 C18.5212641,0.854393244 18.5209113,1.64277217 19.0055123,2.13194927 L25.0642124,8.24786157 L1.25213843,8.24786157 C0.56060147,8.24786157 2.37214396e-15,8.80846304 0,9.5 L0,9.5 C8.46888523e-17,10.191537 0.56060147,10.7521384 1.25213843,10.7521384 L25.0642124,10.7521384 L19.0055123,16.8680507 C18.5209113,17.3572278 18.5212641,18.1456068 19.0063029,18.6343498 L19.0063029,18.6343498 C19.4864741,19.1181882 20.2679584,19.121161 20.7517968,18.6409898 C20.7540185,18.6387849 20.7562318,18.6365716 20.7584367,18.6343498 L28.425409,10.9088236 C29.1992983,10.129024 29.1992983,8.87097598 28.425409,8.09117638 L20.7584367,0.365650167 C20.2782655,-0.118188233 19.4967813,-0.121161045 19.0129429,0.359010205 C19.0107211,0.361215098 19.0085078,0.363428435 19.0063029,0.365650167 Z" id="Shape" transform="translate(14.500000, 9.500000) scale(-1, 1) rotate(-180.000000) translate(-14.500000, -9.500000) "></path>
            </g>
        </g>
    </g>
</svg>